<svg width="203" height="175" viewBox="0 0 203 175" fill="none" xmlns="http://www.w3.org/2000/svg">
<rect width="195.609" height="165.954" rx="25" transform="matrix(0.999044 0.0437058 -0.0436158 0.999048 7.23828 0)" fill="white"/>
<path d="M36.6937 29.5187L36.1355 42.3034L33.7296 42.1981L34.2878 29.4135L36.6937 29.5187ZM40.6625 29.6923L40.5793 31.5977L30.2796 31.1472L30.3628 29.2417L40.6625 29.6923ZM39.9563 37.8079L39.9644 37.6235C39.9948 36.9269 40.1223 36.2903 40.3469 35.7136C40.5717 35.1311 40.8838 34.6315 41.2832 34.215C41.6826 33.7985 42.1627 33.4822 42.7234 33.2663C43.2844 33.0445 43.9162 32.949 44.6186 32.9797C45.3328 33.0109 45.9596 33.1615 46.4991 33.4315C47.0448 33.6958 47.4984 34.0529 47.86 34.5027C48.2215 34.9525 48.4889 35.4774 48.6622 36.0774C48.8356 36.6714 48.9072 37.3168 48.8767 38.0134L48.8687 38.1978C48.8385 38.8885 48.711 39.5252 48.4862 40.1077C48.2616 40.6844 47.9495 41.1839 47.5498 41.6063C47.1504 42.0228 46.6704 42.3391 46.1096 42.555C45.5489 42.7709 44.9144 42.8634 44.2061 42.8324C43.5036 42.8017 42.8796 42.6542 42.3339 42.3898C41.7883 42.1255 41.3347 41.7684 40.9731 41.3186C40.6118 40.8629 40.3444 40.338 40.1709 39.7439C39.9977 39.144 39.9262 38.4986 39.9563 37.8079ZM42.2825 37.7249L42.2744 37.9093C42.2563 38.3249 42.2803 38.716 42.3464 39.0825C42.4125 39.449 42.5244 39.7736 42.6821 40.0561C42.8399 40.3387 43.05 40.5649 43.3123 40.7347C43.5808 40.8989 43.9053 40.9894 44.2858 41.006C44.6604 41.0224 44.9857 40.9604 45.2616 40.82C45.5378 40.6737 45.7668 40.4667 45.9486 40.199C46.1362 39.9316 46.2789 39.6182 46.3767 39.2588C46.4745 38.8995 46.5325 38.512 46.5506 38.0964L46.5586 37.912C46.5765 37.5022 46.5523 37.117 46.4859 36.7563C46.4198 36.3898 46.305 36.0651 46.1414 35.7823C45.9839 35.4939 45.771 35.2647 45.5028 35.0946C45.2407 34.9189 44.9194 34.8227 44.5389 34.8061C44.1642 34.7897 43.8387 34.8576 43.5623 35.0097C43.2861 35.156 43.057 35.3659 42.875 35.6394C42.6932 35.9071 42.5534 36.2207 42.4556 36.58C42.3581 36.9335 42.3004 37.3151 42.2825 37.7249ZM55.2619 33.6213L55.1891 35.2896L49.745 35.0514L49.8179 33.3831L55.2619 33.6213ZM51.3774 31.1112L53.7043 31.213L53.3072 40.3098C53.2949 40.5908 53.3235 40.809 53.3929 40.9646C53.4624 41.1201 53.5721 41.2275 53.722 41.2869C53.8719 41.3462 54.0522 41.3805 54.2629 41.3897C54.4151 41.3964 54.556 41.3937 54.6856 41.3818C54.8151 41.3699 54.9242 41.3571 55.0127 41.3433L54.9456 43.0823C54.7496 43.1383 54.5278 43.1813 54.2802 43.2116C54.0384 43.242 53.7653 43.2506 53.4609 43.2373C52.9399 43.2145 52.4871 43.1067 52.1026 42.9139C51.7183 42.7153 51.4266 42.4122 51.2274 42.0047C51.0284 41.5913 50.9434 41.0539 50.9722 40.3924L51.3774 31.1112ZM61.714 41.399L61.9052 37.0174C61.9193 36.6955 61.8758 36.415 61.7748 36.1759C61.6738 35.9369 61.512 35.748 61.2893 35.6093C61.0666 35.4705 60.7797 35.3934 60.4285 35.3781C60.1182 35.3645 59.8437 35.4053 59.605 35.5004C59.3721 35.5958 59.1899 35.7374 59.0586 35.9252C58.9275 36.1071 58.8565 36.321 58.8458 36.5669L56.5189 36.4651C56.5361 36.0729 56.6459 35.7052 56.8486 35.3622C57.0515 35.0133 57.3317 34.7089 57.689 34.4488C58.0525 34.1832 58.4807 33.982 58.9734 33.8452C59.472 33.7087 60.0257 33.6537 60.6345 33.6804C61.3546 33.7119 61.9902 33.8628 62.5414 34.1333C63.0987 34.3981 63.5278 34.7805 63.8285 35.2805C64.1351 35.7807 64.2723 36.3996 64.2401 37.1371L64.0592 41.2816C64.0385 41.7558 64.05 42.1639 64.0937 42.506C64.1435 42.8425 64.2245 43.1363 64.3367 43.3876L64.3302 43.5369L61.9682 43.4335C61.8675 43.1886 61.7959 42.8805 61.7535 42.5092C61.7113 42.132 61.6981 41.7619 61.714 41.399ZM62.2033 37.6463L62.1607 39.0256L60.6943 38.9615C60.3314 38.9456 60.0107 38.9697 59.7322 39.0337C59.454 39.0919 59.2241 39.1875 59.0423 39.3203C58.8608 39.4472 58.722 39.6054 58.6257 39.7947C58.5297 39.9782 58.4765 40.1899 58.466 40.4299C58.4558 40.6641 58.4993 40.8771 58.5965 41.0691C58.6995 41.2612 58.851 41.4174 59.0511 41.5376C59.2572 41.6522 59.5008 41.7156 59.7817 41.7279C60.1915 41.7459 60.5522 41.6795 60.8637 41.5289C61.1755 41.3725 61.4216 41.178 61.6018 40.9454C61.782 40.7128 61.8827 40.4885 61.9039 40.2724L62.5275 41.3026C62.4351 41.539 62.301 41.7883 62.1254 42.0504C61.9497 42.3125 61.728 42.555 61.4602 42.7779C61.1924 43.0008 60.8737 43.1804 60.5042 43.3167C60.1346 43.453 59.7098 43.5107 59.2298 43.4897C58.6151 43.4628 58.0702 43.3158 57.5951 43.0487C57.12 42.7815 56.7513 42.4282 56.4889 41.9886C56.2266 41.5489 56.1073 41.0569 56.1311 40.5125C56.1531 40.0091 56.2662 39.5683 56.4703 39.1902C56.6745 38.812 56.9668 38.4993 57.3471 38.252C57.7276 37.9988 58.193 37.8169 58.7433 37.706C59.2997 37.5896 59.932 37.5469 60.6403 37.5779L62.2033 37.6463ZM69.0986 30.2325L68.5098 43.7197L66.1829 43.6179L66.7718 30.1308L69.0986 30.2325ZM80.5247 38.5358L77.2583 38.3929L77.3151 36.6886L80.1161 36.8112C80.5961 36.8322 81.0001 36.7824 81.3279 36.6619C81.6557 36.5413 81.9072 36.3558 82.0824 36.1054C82.2634 35.8553 82.3619 35.5458 82.378 35.177C82.3959 34.7673 82.3315 34.4301 82.1847 34.1657C82.0437 33.9014 81.8119 33.7036 81.4892 33.5722C81.1667 33.4349 80.7538 33.3553 80.2504 33.3333L78.2659 33.2464L77.791 44.1257L75.3763 44.0201L75.9344 31.2354L80.3336 31.4278C81.0594 31.4596 81.7032 31.5581 82.2649 31.7235C82.8327 31.8832 83.3093 32.1152 83.6949 32.4195C84.0804 32.7237 84.3662 33.0969 84.5521 33.539C84.744 33.9814 84.8268 34.5012 84.8008 35.0983C84.7778 35.6251 84.6336 36.1056 84.3683 36.5397C84.1092 36.9683 83.7219 37.3091 83.2064 37.5622C82.6969 37.8156 82.0577 37.946 81.2891 37.9534L80.5247 38.5358ZM80.1705 44.2298L76.2983 44.0604L77.3909 42.208L80.2533 42.3332C80.7334 42.3542 81.1319 42.2925 81.4491 42.148C81.7721 42.0038 82.0157 41.7974 82.1799 41.5289C82.3502 41.2549 82.4433 40.9364 82.4592 40.5734C82.4765 40.1754 82.4214 39.8269 82.2937 39.5281C82.1718 39.2295 81.965 38.9947 81.6734 38.8235C81.3876 38.6527 81.0047 38.5568 80.5247 38.5358L78.0134 38.4259L78.1054 36.7232L81.3015 36.863L81.826 37.5458C82.5633 37.5839 83.1569 37.7565 83.6068 38.0636C84.0626 38.3709 84.3919 38.7548 84.5946 39.2153C84.7974 39.6757 84.8874 40.1665 84.8647 40.6875C84.8289 41.507 84.6203 42.187 84.239 42.7275C83.8635 43.2682 83.3301 43.6643 82.6388 43.9155C81.9533 44.1671 81.1306 44.2718 80.1705 44.2298ZM91.937 42.7212L92.1283 38.3396C92.1423 38.0176 92.0989 37.7371 91.9979 37.4981C91.8969 37.2591 91.735 37.0702 91.5124 36.9314C91.2897 36.7927 91.0027 36.7156 90.6515 36.7002C90.3413 36.6867 90.0668 36.7274 89.828 36.8226C89.5951 36.918 89.413 37.0595 89.2816 37.2473C89.1505 37.4293 89.0796 37.6432 89.0689 37.889L86.742 37.7872C86.7591 37.395 86.869 37.0274 87.0716 36.6844C87.2746 36.3355 87.5547 36.0311 87.9121 35.771C88.2756 35.5054 88.7037 35.3042 89.1965 35.1674C89.6951 35.0309 90.2488 34.9759 90.8576 35.0025C91.5776 35.034 92.2132 35.185 92.7645 35.4555C93.3218 35.7203 93.7508 36.1027 94.0516 36.6027C94.3582 37.1029 94.4954 37.7218 94.4632 38.4593L94.2822 42.6038C94.2615 43.078 94.273 43.4861 94.3168 43.8282C94.3666 44.1647 94.4476 44.4585 94.5598 44.7098L94.5533 44.859L92.1913 44.7557C92.0905 44.5108 92.0189 44.2027 91.9765 43.8314C91.9343 43.4542 91.9212 43.0841 91.937 42.7212ZM92.4263 38.9685L92.3837 40.3478L90.9173 40.2836C90.5544 40.2678 90.2337 40.2919 89.9553 40.3559C89.6771 40.4141 89.4471 40.5096 89.2654 40.6424C89.0839 40.7694 88.945 40.9275 88.8488 41.1169C88.7528 41.3004 88.6995 41.5121 88.6891 41.7521C88.6788 41.9863 88.7223 42.1993 88.8195 42.3912C88.9226 42.5834 89.0741 42.7396 89.2741 42.8598C89.4803 42.9744 89.7238 43.0378 90.0048 43.0501C90.4146 43.068 90.7752 43.0017 91.0868 42.8511C91.3986 42.6947 91.6446 42.5002 91.8248 42.2676C92.0051 42.035 92.1058 41.8107 92.1269 41.5946L92.7506 42.6248C92.6581 42.8612 92.5241 43.1105 92.3484 43.3726C92.1728 43.6347 91.951 43.8772 91.6833 44.1001C91.4155 44.3229 91.0968 44.5025 90.7272 44.6389C90.3576 44.7752 89.9328 44.8329 89.4528 44.8119C88.8382 44.785 88.2933 44.638 87.8182 44.3708C87.343 44.1037 86.9743 43.7504 86.712 43.3107C86.4496 42.8711 86.3304 42.3791 86.3541 41.8347C86.3761 41.3313 86.4892 40.8905 86.6934 40.5123C86.8976 40.1342 87.1898 39.8215 87.5701 39.5742C87.9506 39.321 88.4161 39.1391 88.9663 39.0282C89.5227 38.9118 90.1551 38.8691 90.8634 38.9001L92.4263 38.9685ZM99.3217 31.5547L98.7329 45.0419L96.406 44.9401L96.9948 31.4529L99.3217 31.5547ZM106.267 43.3481L106.458 38.9665C106.472 38.6445 106.429 38.3641 106.328 38.125C106.227 37.886 106.065 37.6971 105.842 37.5584C105.62 37.4196 105.333 37.3425 104.982 37.3271C104.671 37.3136 104.397 37.3544 104.158 37.4495C103.925 37.5449 103.743 37.6864 103.612 37.8742C103.481 38.0562 103.41 38.2701 103.399 38.5159L101.072 38.4142C101.089 38.0219 101.199 37.6543 101.402 37.3113C101.605 36.9624 101.885 36.658 102.242 36.3979C102.606 36.1323 103.034 35.9311 103.527 35.7943C104.025 35.6578 104.579 35.6028 105.188 35.6295C105.908 35.661 106.543 35.8119 107.094 36.0824C107.652 36.3472 108.081 36.7296 108.382 37.2296C108.688 37.7298 108.825 38.3487 108.793 39.0862L108.612 43.2307C108.592 43.7049 108.603 44.113 108.647 44.4551C108.697 44.7916 108.778 45.0854 108.89 45.3367L108.883 45.4859L106.521 45.3826C106.421 45.1377 106.349 44.8296 106.307 44.4583C106.264 44.0811 106.251 43.711 106.267 43.3481ZM106.756 39.5954L106.714 40.9747L105.247 40.9105C104.884 40.8947 104.564 40.9188 104.285 40.9828C104.007 41.041 103.777 41.1365 103.595 41.2694C103.414 41.3963 103.275 41.5545 103.179 41.7438C103.083 41.9273 103.03 42.139 103.019 42.379C103.009 42.6132 103.052 42.8262 103.15 43.0181C103.253 43.2103 103.404 43.3665 103.604 43.4867C103.81 43.6013 104.054 43.6647 104.335 43.677C104.745 43.6949 105.105 43.6286 105.417 43.478C105.729 43.3216 105.975 43.1271 106.155 42.8945C106.335 42.6619 106.436 42.4376 106.457 42.2215L107.081 43.2517C106.988 43.4881 106.854 43.7374 106.678 43.9995C106.503 44.2616 106.281 44.5041 106.013 44.727C105.746 44.9499 105.427 45.1295 105.057 45.2658C104.688 45.4021 104.263 45.4598 103.783 45.4388C103.168 45.4119 102.623 45.2649 102.148 44.9978C101.673 44.7306 101.304 44.3773 101.042 43.9377C100.78 43.498 100.66 43.006 100.684 42.4616C100.706 41.9582 100.819 41.5174 101.023 41.1392C101.228 40.7611 101.52 40.4484 101.9 40.2011C102.281 39.9479 102.746 39.766 103.296 39.6551C103.853 39.5387 104.485 39.496 105.193 39.527L106.756 39.5954ZM113.205 38.1883L112.879 45.6607L110.56 45.5593L110.975 36.0586L113.153 36.1539L113.205 38.1883ZM112.732 40.5518L112.047 40.5218C112.083 39.8313 112.204 39.2091 112.41 38.655C112.616 38.101 112.892 37.6292 113.237 37.2396C113.589 36.8503 113.997 36.5574 114.463 36.3608C114.929 36.1641 115.443 36.0781 116.005 36.1027C116.462 36.1227 116.872 36.2051 117.235 36.35C117.598 36.495 117.905 36.7137 118.157 37.0062C118.414 37.2989 118.602 37.6767 118.723 38.1394C118.85 38.5966 118.898 39.1559 118.87 39.8174L118.604 45.9112L116.268 45.809L116.535 39.6976C116.554 39.2645 116.504 38.9192 116.386 38.6618C116.274 38.4047 116.101 38.2183 115.865 38.1024C115.636 37.9868 115.348 37.9214 115.003 37.9063C114.646 37.8907 114.329 37.9502 114.054 38.0847C113.784 38.2137 113.553 38.4001 113.361 38.6438C113.174 38.8879 113.027 39.1717 112.919 39.4955C112.811 39.8192 112.749 40.1713 112.732 40.5518ZM124.62 44.5205C124.948 44.5348 125.243 44.4832 125.507 44.3657C125.77 44.2482 125.983 44.0757 126.145 43.8482C126.313 43.621 126.41 43.3525 126.435 43.0427L128.622 43.1384C128.582 43.7818 128.375 44.3504 128.002 44.8444C127.628 45.3383 127.142 45.7217 126.544 45.9946C125.952 46.262 125.295 46.3799 124.575 46.3484C123.844 46.3164 123.211 46.1655 122.677 45.8959C122.144 45.6262 121.705 45.2639 121.361 44.809C121.023 44.3543 120.776 43.8333 120.62 43.2458C120.47 42.6586 120.409 42.0342 120.438 41.3728L120.45 41.0918C120.479 40.4303 120.594 39.8136 120.795 39.2418C121.002 38.6702 121.293 38.1727 121.669 37.7493C122.052 37.3261 122.52 37.0035 123.075 36.7815C123.63 36.5594 124.271 36.4643 124.997 36.4961C125.764 36.5296 126.43 36.7083 126.997 37.0322C127.569 37.3564 128.007 37.7978 128.311 38.3566C128.621 38.9156 128.766 39.5641 128.746 40.3022L126.559 40.2066C126.562 39.8665 126.499 39.5588 126.371 39.2834C126.242 39.008 126.052 38.7827 125.802 38.6075C125.552 38.4323 125.242 38.3367 124.873 38.3205C124.481 38.3034 124.15 38.371 123.879 38.5234C123.614 38.676 123.402 38.8925 123.244 39.173C123.091 39.4478 122.978 39.7596 122.904 40.1082C122.836 40.4513 122.794 40.8131 122.777 41.1936L122.765 41.4746C122.748 41.8609 122.758 42.2308 122.796 42.5844C122.839 42.9382 122.924 43.2586 123.053 43.5458C123.187 43.8273 123.379 44.0556 123.63 44.2308C123.886 44.4062 124.216 44.5028 124.62 44.5205ZM134.287 46.7732C133.567 46.7417 132.925 46.5964 132.362 46.3371C131.798 46.0779 131.324 45.7316 130.938 45.2983C130.558 44.8594 130.272 44.3572 130.08 43.7916C129.894 43.2204 129.815 42.6129 129.843 41.9689L129.858 41.6177C129.89 40.886 130.024 40.2262 130.261 39.6383C130.498 39.0446 130.819 38.5396 131.225 38.1233C131.63 37.707 132.107 37.3936 132.656 37.183C133.205 36.9724 133.804 36.8813 134.454 36.9098C135.127 36.9392 135.716 37.0794 136.221 37.3302C136.727 37.5752 137.143 37.9101 137.47 38.335C137.798 38.7599 138.037 39.263 138.188 39.8443C138.338 40.4198 138.399 41.0529 138.369 41.7437L138.326 42.7184L130.88 42.3926L130.95 40.7945L136.113 41.0204L136.12 40.8448C136.125 40.4755 136.069 40.1358 135.954 39.8258C135.839 39.5099 135.65 39.2553 135.389 39.0621C135.128 38.863 134.784 38.7541 134.356 38.7354C134.011 38.7203 133.706 38.7832 133.442 38.9241C133.184 39.0595 132.964 39.261 132.782 39.5287C132.606 39.7908 132.469 40.1074 132.371 40.4784C132.273 40.8495 132.214 41.2633 132.194 41.7199L132.178 42.0711C132.161 42.4692 132.198 42.8403 132.288 43.1844C132.385 43.5288 132.533 43.8315 132.732 44.0924C132.938 44.3477 133.187 44.5522 133.48 44.7057C133.778 44.8537 134.121 44.9361 134.507 44.953C134.993 44.9743 135.436 44.8998 135.836 44.7296C136.243 44.5539 136.601 44.2851 136.91 43.9232L138.025 45.1861C137.813 45.47 137.531 45.7392 137.18 45.9937C136.835 46.2483 136.421 46.4502 135.94 46.5992C135.458 46.7424 134.907 46.8004 134.287 46.7732Z" fill="#686868"/>
<path d="M44.2466 95.1928L44.0932 98.705L28.5456 98.0249L28.6764 95.0277L36.3729 87.4663C37.1477 86.6765 37.7621 85.9787 38.216 85.3729C38.6704 84.7568 39.0021 84.2031 39.2113 83.7117C39.4313 83.2104 39.5512 82.7309 39.5712 82.273C39.6012 81.5861 39.5124 80.9931 39.3048 80.494C39.0977 79.9844 38.7763 79.5846 38.3406 79.2944C37.9153 79.0048 37.3801 78.8458 36.7349 78.8176C36.048 78.7875 35.4476 78.9281 34.9335 79.2392C34.4299 79.5509 34.035 79.9976 33.7489 80.5794C33.4733 81.1616 33.3191 81.8274 33.2864 82.5767L28.7751 82.3793C28.8341 81.0265 29.2108 79.8022 29.9051 78.7065C30.5998 77.6003 31.5497 76.74 32.7548 76.1254C33.9602 75.5004 35.3695 75.2232 36.9826 75.2938C38.5748 75.3634 39.9059 75.6823 40.9759 76.2505C42.0567 76.8087 42.857 77.584 43.3767 78.5764C43.9073 79.5588 44.1435 80.7161 44.0853 82.0482C44.0526 82.7974 43.9009 83.5259 43.6302 84.2335C43.36 84.9307 42.9857 85.6233 42.5073 86.3114C42.0397 86.9895 41.4781 87.674 40.8224 88.3647C40.1666 89.0555 39.4421 89.7693 38.6488 90.5061L34.5059 94.7666L44.2466 95.1928ZM52.0893 85.714L54.4933 85.8191C55.2634 85.8528 55.9039 85.7505 56.4147 85.5122C56.9261 85.2635 57.3119 84.905 57.5721 84.4368C57.8432 83.9586 57.9929 83.3969 58.021 82.7517C58.0465 82.1689 57.9545 81.6487 57.7451 81.1912C57.5465 80.7238 57.2238 80.3551 56.7768 80.0853C56.3302 79.8051 55.7583 79.6498 55.0611 79.6193C54.5095 79.5952 53.9948 79.6821 53.517 79.8802C53.0392 80.0782 52.6511 80.3688 52.3529 80.752C52.0546 81.1352 51.8932 81.6077 51.8687 82.1697L47.3574 81.9723C47.4119 80.7235 47.7924 79.6506 48.4989 78.7535C49.2157 77.8569 50.1527 77.1733 51.3097 76.7025C52.4668 76.2318 53.727 76.0263 55.0902 76.0859C56.6304 76.1533 57.9672 76.462 59.1005 77.0121C60.2343 77.5518 61.1029 78.3144 61.7063 79.3C62.3098 80.2857 62.5806 81.4862 62.5188 82.9015C62.4874 83.6196 62.2905 84.3095 61.9279 84.9714C61.5659 85.6229 61.0608 86.2055 60.4128 86.7194C59.7756 87.2232 59.0077 87.6171 58.109 87.901C57.2108 88.1745 56.2102 88.2872 55.1071 88.2389L51.985 88.1023L52.0893 85.714ZM51.9401 89.1326L52.0416 86.8067L55.1636 86.9433C56.402 86.9974 57.4834 87.1855 58.4077 87.5075C59.3321 87.8294 60.1001 88.2697 60.7117 88.8282C61.3238 89.3763 61.7755 90.0164 62.0667 90.7486C62.3584 91.4704 62.4854 92.2632 62.4477 93.1269C62.4014 94.1884 62.1571 95.1265 61.7149 95.9413C61.2732 96.7457 60.6703 97.4179 59.9065 97.958C59.153 98.4985 58.2806 98.8982 57.2892 99.1572C56.2982 99.4058 55.2252 99.5048 54.07 99.4543C53.1126 99.4124 52.1765 99.2411 51.2616 98.9404C50.3577 98.6298 49.5426 98.1927 48.8165 97.6292C48.1013 97.0557 47.5376 96.3533 47.1256 95.522C46.7244 94.6808 46.5483 93.6982 46.5974 92.5743L51.1087 92.7716C51.0832 93.3544 51.2062 93.8811 51.4776 94.3518C51.749 94.8224 52.134 95.199 52.6326 95.4814C53.1415 95.7644 53.7134 95.9197 54.3483 95.9475C55.0663 95.9789 55.686 95.8757 56.2073 95.6378C56.7394 95.39 57.1512 95.0327 57.4427 94.5658C57.745 94.089 57.9103 93.5279 57.9385 92.8827C57.9748 92.0502 57.853 91.3775 57.573 90.8648C57.2935 90.3417 56.8779 89.9482 56.3264 89.6842C55.7749 89.4203 55.1141 89.2715 54.344 89.2378L51.9401 89.1326ZM69.8749 96.0324L69.7278 99.0445C69.6774 100.2 69.3351 101.352 68.701 102.503C68.0773 103.654 67.3068 104.585 66.3895 105.295L64.1005 103.991C64.3815 103.523 64.6574 103.056 64.9281 102.588C65.1987 102.12 65.4298 101.604 65.6213 101.039C65.8128 100.474 65.9244 99.8269 65.9562 99.0985L66.0973 95.8672L69.8749 96.0324ZM77.8101 89.8108L74.2573 88.7952L76.0559 77.3316L88.8249 77.8902L88.6661 81.5273L79.5967 81.1306L78.8146 86.1481C79.1241 85.9844 79.5902 85.8171 80.2128 85.6462C80.8359 85.4649 81.5273 85.3909 82.2869 85.4241C83.3901 85.4724 84.3608 85.6869 85.1992 86.0677C86.0375 86.4484 86.739 86.9796 87.3035 87.6612C87.8785 88.3432 88.3014 89.1645 88.5723 90.1252C88.8431 91.0859 88.9524 92.1646 88.9002 93.3614C88.8561 94.3708 88.658 95.3266 88.3058 96.2288C87.9541 97.1205 87.4451 97.9115 86.779 98.6018C86.1133 99.2817 85.2928 99.8036 84.3177 100.168C83.3426 100.532 82.1994 100.685 80.8881 100.628C79.9099 100.585 78.9693 100.398 78.0662 100.066C77.1735 99.7352 76.3754 99.2675 75.672 98.6633C74.9789 98.0595 74.4315 97.3422 74.0299 96.5114C73.6391 95.6706 73.4562 94.7242 73.4813 93.6722L77.9458 93.8675C77.9801 94.5154 78.1223 95.0795 78.3724 95.5596C78.6334 96.0298 78.9874 96.3998 79.4344 96.6696C79.8814 96.9394 80.4119 97.0877 81.0259 97.1146C81.5982 97.1396 82.0921 97.0517 82.5075 96.851C82.9229 96.6502 83.2639 96.3627 83.5305 95.9886C83.7975 95.6041 83.9996 95.1541 84.1368 94.6388C84.2849 94.1135 84.3723 93.5439 84.3991 92.9299C84.4259 92.3159 84.3774 91.7559 84.2535 91.25C84.1296 90.7441 83.9247 90.3025 83.6388 89.925C83.3529 89.5476 82.9801 89.2498 82.5205 89.0315C82.0712 88.8138 81.5396 88.6915 80.9256 88.6646C80.093 88.6282 79.4421 88.73 78.9729 88.9702C78.514 89.2108 78.1264 89.491 77.8101 89.8108ZM107.916 78.7254L107.81 81.1449L98.1353 101.069L93.3898 100.862L103.017 82.0301L91.6999 81.535L91.8532 78.0227L107.916 78.7254ZM122.444 79.1263L123.099 79.155L122.942 82.7453L122.677 82.7337C121.491 82.6818 120.427 82.8125 119.485 83.1258C118.543 83.4392 117.736 83.9095 117.062 84.5369C116.399 85.1544 115.876 85.9135 115.492 86.8142C115.119 87.7155 114.908 88.7332 114.859 89.8676L114.694 93.6452C114.658 94.457 114.705 95.1784 114.834 95.8097C114.973 96.431 115.185 96.9563 115.469 97.3858C115.763 97.8053 116.114 98.1283 116.521 98.3546C116.929 98.5705 117.393 98.6899 117.913 98.7127C118.402 98.7341 118.849 98.6493 119.254 98.4585C119.669 98.2681 120.025 97.9918 120.322 97.6294C120.63 97.2571 120.868 96.8192 121.036 96.3156C121.215 95.8021 121.318 95.2384 121.345 94.6244C121.372 94.0104 121.318 93.4398 121.185 92.9126C121.062 92.3859 120.863 91.9288 120.588 91.5415C120.313 91.1437 119.972 90.8316 119.565 90.6052C119.158 90.3789 118.694 90.2543 118.174 90.2316C117.466 90.2006 116.835 90.3398 116.279 90.6492C115.734 90.9485 115.3 91.3466 114.976 91.8433C114.652 92.3401 114.467 92.869 114.421 93.43L113.102 92.4964C113.168 91.6965 113.367 90.9441 113.701 90.2392C114.044 89.5348 114.499 88.9186 115.064 88.3908C115.64 87.8529 116.32 87.4448 117.103 87.1662C117.888 86.8773 118.764 86.754 119.731 86.7964C120.793 86.8428 121.716 87.0865 122.499 87.5274C123.293 87.9688 123.945 88.5551 124.455 89.2865C124.966 90.0178 125.336 90.8525 125.566 91.7905C125.796 92.7286 125.888 93.7231 125.842 94.7742C125.794 95.8773 125.567 96.8944 125.162 97.8255C124.767 98.757 124.215 99.5618 123.508 100.24C122.811 100.918 121.986 101.435 121.032 101.789C120.078 102.144 119.018 102.296 117.853 102.245C116.646 102.192 115.557 101.925 114.588 101.445C113.629 100.955 112.813 100.293 112.141 99.4611C111.468 98.6288 110.963 97.6527 110.626 96.5327C110.3 95.4132 110.165 94.1978 110.222 92.8866L110.299 91.1383C110.379 89.3067 110.717 87.6428 111.314 86.1466C111.922 84.6405 112.755 83.3528 113.813 82.2834C114.872 81.2036 116.127 80.3879 117.58 79.8363C119.032 79.2847 120.654 79.048 122.444 79.1263ZM128.701 100.232C128.73 99.5664 128.983 99.0197 129.461 98.5922C129.948 98.1652 130.577 97.9686 131.348 98.0023C132.118 98.036 132.722 98.2866 133.16 98.7541C133.609 99.2221 133.819 99.7891 133.79 100.455C133.761 101.121 133.502 101.668 133.014 102.095C132.537 102.522 131.913 102.719 131.143 102.685C130.373 102.652 129.764 102.401 129.315 101.933C128.876 101.465 128.672 100.899 128.701 100.232ZM153.354 90.0971L153.182 94.0309C153.108 95.7376 152.861 97.2022 152.443 98.4247C152.025 99.6367 151.455 100.623 150.734 101.384C150.024 102.135 149.192 102.677 148.239 103.011C147.286 103.345 146.237 103.486 145.092 103.436C144.177 103.396 143.328 103.244 142.547 102.981C141.767 102.707 141.07 102.306 140.457 101.779C139.855 101.252 139.341 100.599 138.916 99.8192C138.502 99.0295 138.199 98.0987 138.006 97.0267C137.813 95.9548 137.746 94.7319 137.806 93.3582L137.978 89.4245C138.052 87.7178 138.298 86.2636 138.716 85.0619C139.144 83.8503 139.713 82.8691 140.424 82.1182C141.145 81.3677 141.982 80.8308 142.934 80.5076C143.887 80.1739 144.936 80.0321 146.081 80.0822C146.996 80.1223 147.839 80.279 148.609 80.5525C149.39 80.8161 150.088 81.2063 150.701 81.7232C151.314 82.2401 151.828 82.8934 152.242 83.683C152.656 84.4623 152.96 85.3879 153.153 86.4599C153.346 87.5214 153.413 88.7339 153.354 90.0971ZM148.645 94.4267L148.869 89.291C148.905 88.4689 148.89 87.7487 148.823 87.1306C148.766 86.513 148.659 85.987 148.501 85.5526C148.343 85.1077 148.14 84.7443 147.891 84.4624C147.643 84.1804 147.355 83.9697 147.027 83.8303C146.7 83.6908 146.333 83.6122 145.927 83.5945C145.417 83.5722 144.96 83.6512 144.556 83.8317C144.163 84.0125 143.821 84.3156 143.531 84.7408C143.242 85.1557 143.009 85.719 142.832 86.4306C142.666 87.1324 142.56 87.9932 142.516 89.013L142.292 94.1488C142.256 94.9709 142.266 95.696 142.322 96.3241C142.388 96.9526 142.5 97.4944 142.657 97.9497C142.826 98.3949 143.029 98.7635 143.266 99.0554C143.514 99.3374 143.802 99.5481 144.13 99.6875C144.468 99.8274 144.84 99.9063 145.246 99.924C145.745 99.9459 146.192 99.8664 146.585 99.6855C146.99 99.4947 147.337 99.1866 147.627 98.7614C147.927 98.3262 148.161 97.7525 148.328 97.0403C148.494 96.3282 148.6 95.457 148.645 94.4267ZM171.711 90.9002L171.54 94.834C171.465 96.5407 171.219 98.0053 170.8 99.2278C170.383 100.44 169.813 101.426 169.092 102.187C168.381 102.938 167.549 103.48 166.596 103.814C165.643 104.148 164.595 104.289 163.45 104.239C162.534 104.199 161.686 104.048 160.905 103.784C160.124 103.51 159.428 103.109 158.815 102.582C158.212 102.055 157.698 101.402 157.274 100.622C156.86 99.8326 156.556 98.9018 156.363 97.8298C156.17 96.7578 156.104 95.535 156.164 94.1613L156.335 90.2276C156.41 88.5209 156.656 87.0667 157.073 85.865C157.502 84.6534 158.071 83.6722 158.781 82.9213C159.502 82.1708 160.339 81.6339 161.292 81.3107C162.245 80.977 163.293 80.8352 164.438 80.8853C165.354 80.9253 166.197 81.0821 166.967 81.3556C167.748 81.6192 168.445 82.0094 169.058 82.5263C169.672 83.0432 170.186 83.6965 170.599 84.4861C171.014 85.2654 171.317 86.191 171.51 87.263C171.704 88.3245 171.771 89.537 171.711 90.9002ZM167.002 95.2298L167.227 90.0941C167.262 89.272 167.247 88.5518 167.18 87.9337C167.124 87.3161 167.016 86.7901 166.858 86.3557C166.7 85.9108 166.497 85.5474 166.249 85.2655C166 84.9835 165.712 84.7728 165.385 84.6334C165.057 84.4939 164.691 84.4153 164.285 84.3976C163.775 84.3753 163.318 84.4543 162.914 84.6347C162.52 84.8156 162.178 85.1187 161.889 85.5439C161.6 85.9588 161.366 86.522 161.189 87.2337C161.023 87.9355 160.918 88.7963 160.873 89.8161L160.649 94.9519C160.613 95.774 160.623 96.4991 160.679 97.1271C160.746 97.7556 160.858 98.2975 161.015 98.7527C161.183 99.198 161.386 99.5666 161.624 99.8585C161.872 100.14 162.16 100.351 162.487 100.491C162.825 100.631 163.197 100.709 163.603 100.727C164.103 100.749 164.549 100.669 164.943 100.489C165.347 100.298 165.695 99.9897 165.984 99.5645C166.285 99.1293 166.518 98.5556 166.685 97.8434C166.852 97.1313 166.957 96.2601 167.002 95.2298Z" fill="#141414"/>
<circle cx="10.0423" cy="10.0423" r="10.0423" transform="matrix(0.999044 0.0437058 -0.0436158 0.999048 25.7654 125.888)" fill="#E0F0E5"/>
<path d="M35.5572 131.844L35.163 140.874M39.8748 136.557L30.8454 136.162" stroke="#141414" stroke-width="1.25528" stroke-linecap="round"/>
<path d="M61.4317 144.507L66.2049 131.743L68.9113 131.862L72.554 144.993L70.6029 144.908L67.2434 132.924L67.7289 132.945L63.3828 144.592L61.4317 144.507ZM63.7442 141.68L63.8211 139.918L70.5826 140.214L70.5057 141.976L63.7442 141.68ZM78.0127 145.502C77.1076 145.463 76.3351 145.204 75.6954 144.725C75.0616 144.247 74.5818 143.614 74.2559 142.825C73.9363 142.03 73.7976 141.147 73.84 140.176C73.8827 139.199 74.1006 138.335 74.4937 137.583C74.8872 136.825 75.4232 136.239 76.102 135.825C76.787 135.404 77.585 135.214 78.4962 135.254C79.4133 135.294 80.1737 135.552 80.7775 136.029C81.3875 136.5 81.8345 137.129 82.1185 137.917C82.4084 138.704 82.5322 139.583 82.4898 140.554C82.4474 141.525 82.2474 142.39 81.89 143.15C81.5325 143.909 81.0292 144.502 80.3799 144.93C79.7309 145.352 78.9418 145.543 78.0127 145.502ZM78.3476 143.814C78.965 143.841 79.475 143.717 79.8774 143.44C80.2799 143.163 80.5823 142.771 80.7846 142.263C80.9869 141.756 81.1027 141.166 81.1321 140.495C81.1614 139.824 81.0944 139.226 80.931 138.702C80.7737 138.179 80.5095 137.765 80.1385 137.461C79.7734 137.156 79.2971 136.991 78.7097 136.966C78.0863 136.938 77.5671 137.069 77.1521 137.357C76.7372 137.645 76.4195 138.043 76.1992 138.549C75.9849 139.057 75.8639 139.628 75.8361 140.263C75.8081 140.905 75.8786 141.49 76.0477 142.02C76.223 142.544 76.4988 142.968 76.8751 143.291C77.2574 143.614 77.7482 143.788 78.3476 143.814ZM80.9197 145.359L81.2247 138.373L81.0089 138.363L81.2692 132.402L83.1574 132.485L82.5921 145.432L80.9197 145.359ZM88.9534 145.981C88.0483 145.941 87.2758 145.682 86.6361 145.204C86.0023 144.726 85.5225 144.092 85.1966 143.303C84.877 142.508 84.7383 141.626 84.7807 140.655C84.8234 139.677 85.0413 138.813 85.4345 138.062C85.8279 137.304 86.3639 136.718 87.0427 136.303C87.7277 135.883 88.5257 135.692 89.4369 135.732C90.354 135.772 91.1144 136.031 91.7182 136.508C92.3282 136.979 92.7752 137.608 93.0592 138.395C93.3491 139.183 93.4729 140.062 93.4305 141.033C93.3881 142.004 93.1882 142.869 92.8307 143.628C92.4733 144.387 91.9699 144.981 91.3206 145.409C90.6716 145.831 89.8825 146.022 88.9534 145.981ZM89.2883 144.293C89.9057 144.32 90.4157 144.195 90.8181 143.919C91.2206 143.642 91.523 143.25 91.7253 142.742C91.9276 142.234 92.0435 141.645 92.0728 140.974C92.1021 140.302 92.0351 139.705 91.8718 139.181C91.7144 138.658 91.4502 138.244 91.0792 137.939C90.7141 137.635 90.2378 137.47 89.6504 137.444C89.027 137.417 88.5078 137.547 88.0928 137.836C87.6779 138.124 87.3602 138.521 87.1399 139.028C86.9256 139.535 86.8046 140.106 86.7768 140.742C86.7488 141.383 86.8194 141.969 86.9884 142.499C87.1637 143.023 87.4395 143.446 87.8158 143.769C88.1981 144.092 88.6889 144.267 89.2883 144.293ZM91.8604 145.838L92.1654 138.852L91.9496 138.842L92.2099 132.881L94.0981 132.963L93.5328 145.911L91.8604 145.838ZM99.6486 146.179L100.214 133.231L102.12 133.314L108.075 143.214L108.495 133.593L110.401 133.677L109.836 146.624L107.93 146.541L101.975 136.632L101.555 146.262L99.6486 146.179ZM115.994 147.155C115.322 147.126 114.763 146.993 114.317 146.757C113.871 146.522 113.512 146.224 113.239 145.863C112.973 145.497 112.774 145.104 112.642 144.684C112.51 144.264 112.426 143.855 112.389 143.457C112.353 143.059 112.341 142.71 112.354 142.41L112.59 137.015L114.496 137.099L114.287 141.873C114.271 142.251 114.284 142.642 114.326 143.046C114.375 143.445 114.479 143.819 114.638 144.168C114.803 144.517 115.039 144.804 115.348 145.028C115.662 145.252 116.077 145.375 116.593 145.397C116.929 145.412 117.249 145.372 117.553 145.277C117.858 145.176 118.126 145.008 118.359 144.772C118.597 144.536 118.788 144.22 118.932 143.824C119.081 143.428 119.168 142.943 119.193 142.367L120.343 142.859C120.305 143.74 120.106 144.512 119.747 145.175C119.388 145.832 118.891 146.336 118.257 146.686C117.623 147.037 116.869 147.193 115.994 147.155ZM119.215 147.035L119.337 144.229L119.113 144.219L119.414 137.314L121.311 137.397L120.887 147.108L119.215 147.035ZM135.044 147.727L135.317 141.676C135.348 140.975 135.192 140.422 134.849 140.016C134.507 139.605 134.042 139.386 133.454 139.361C133.095 139.345 132.761 139.414 132.454 139.569C132.154 139.718 131.903 139.953 131.703 140.275C131.509 140.591 131.401 140.994 131.38 141.486L130.492 140.988C130.509 140.304 130.679 139.711 131.002 139.208C131.33 138.706 131.761 138.326 132.295 138.067C132.829 137.802 133.42 137.683 134.067 137.712C135.116 137.758 135.914 138.108 136.462 138.762C137.01 139.417 137.262 140.266 137.216 141.309L136.923 147.809L135.044 147.727ZM123.4 147.218L123.824 137.507L125.496 137.58L125.374 140.385L125.59 140.395L125.288 147.3L123.4 147.218ZM129.227 147.473L129.498 141.458C129.529 140.75 129.373 140.188 129.031 139.771C128.695 139.354 128.227 139.132 127.628 139.106C127.035 139.08 126.546 139.263 126.163 139.654C125.785 140.046 125.582 140.572 125.553 141.231L124.679 140.616C124.707 139.981 124.885 139.421 125.212 138.937C125.539 138.453 125.97 138.078 126.504 137.813C127.038 137.548 127.635 137.43 128.294 137.459C128.984 137.489 129.565 137.662 130.037 137.977C130.51 138.286 130.861 138.707 131.09 139.239C131.325 139.772 131.428 140.383 131.398 141.072L131.106 147.555L129.227 147.473ZM143.814 148.381C142.885 148.34 142.115 148.081 141.506 147.604C140.896 147.121 140.446 146.486 140.156 145.699C139.866 144.911 139.743 144.032 139.785 143.061C139.827 142.09 140.024 141.225 140.376 140.465C140.733 139.706 141.233 139.118 141.876 138.702C142.525 138.28 143.308 138.089 144.225 138.129C145.137 138.169 145.912 138.428 146.552 138.907C147.198 139.379 147.684 140.01 148.01 140.799C148.336 141.582 148.477 142.462 148.435 143.439C148.392 144.41 148.174 145.278 147.781 146.041C147.393 146.799 146.86 147.388 146.181 147.809C145.508 148.23 144.719 148.421 143.814 148.381ZM139.258 147.911L139.823 134.964L141.711 135.046L141.451 141.008L141.235 140.998L140.93 147.985L139.258 147.911ZM143.627 146.67C144.227 146.696 144.728 146.565 145.131 146.277C145.54 145.988 145.852 145.59 146.066 145.083C146.286 144.57 146.411 143.993 146.439 143.352C146.466 142.717 146.393 142.137 146.217 141.613C146.048 141.089 145.769 140.665 145.381 140.342C144.993 140.019 144.487 139.843 143.863 139.816C143.276 139.79 142.784 139.913 142.388 140.184C141.998 140.455 141.699 140.844 141.49 141.352C141.288 141.859 141.172 142.449 141.143 143.12C141.113 143.792 141.177 144.389 141.335 144.912C141.492 145.436 141.759 145.853 142.136 146.164C142.513 146.474 143.01 146.643 143.627 146.67ZM154.503 148.849C153.538 148.806 152.699 148.559 151.986 148.108C151.279 147.651 150.738 147.035 150.364 146.262C149.995 145.483 149.833 144.593 149.877 143.592C149.923 142.531 150.161 141.62 150.591 140.858C151.026 140.096 151.61 139.518 152.342 139.124C153.074 138.729 153.913 138.553 154.86 138.594C155.849 138.638 156.682 138.905 157.357 139.397C158.032 139.883 158.522 140.556 158.827 141.417C159.138 142.277 159.232 143.287 159.109 144.447L157.23 144.365L157.26 143.681C157.297 142.554 157.118 141.711 156.722 141.153C156.332 140.596 155.711 140.298 154.86 140.261C153.919 140.22 153.198 140.486 152.699 141.058C152.199 141.631 151.925 142.478 151.876 143.599C151.83 144.666 152.03 145.503 152.478 146.112C152.926 146.714 153.597 147.034 154.49 147.073C155.078 147.099 155.59 146.989 156.027 146.744C156.47 146.493 156.823 146.124 157.084 145.637L158.902 146.302C158.486 147.155 157.885 147.804 157.096 148.25C156.308 148.69 155.444 148.89 154.503 148.849ZM151.242 144.103L151.306 142.637L158.238 142.94L158.174 144.406L151.242 144.103ZM160.938 148.86L161.362 139.149L163.034 139.222L162.931 141.578L162.711 141.262C162.844 140.956 163.013 140.678 163.216 140.428C163.419 140.173 163.65 139.967 163.909 139.81C164.163 139.641 164.442 139.515 164.745 139.432C165.056 139.344 165.37 139.297 165.688 139.293C166.007 139.283 166.312 139.312 166.604 139.378L166.527 141.141C166.213 141.043 165.86 141.003 165.469 141.022C165.084 141.042 164.725 141.149 164.392 141.345C164.077 141.529 163.824 141.758 163.632 142.032C163.446 142.306 163.306 142.615 163.213 142.96C163.12 143.298 163.066 143.659 163.049 144.043L162.835 148.943L160.938 148.86Z" fill="#686868"/>
</svg>
