<svg width="334" height="232" viewBox="0 0 334 232" fill="none" xmlns="http://www.w3.org/2000/svg">
<rect y="128" width="34" height="68" rx="2" fill="#E0F0E5"/>
<path d="M11.0664 222.416C11.0664 222.225 11.0368 222.054 10.9775 221.903C10.9229 221.748 10.8203 221.609 10.6699 221.486C10.5241 221.359 10.3167 221.236 10.0479 221.117C9.78353 220.994 9.44173 220.867 9.02246 220.734C8.55762 220.589 8.12467 220.424 7.72363 220.242C7.32259 220.06 6.9694 219.848 6.66406 219.606C6.36328 219.365 6.12858 219.087 5.95996 218.772C5.79134 218.453 5.70703 218.084 5.70703 217.665C5.70703 217.255 5.79362 216.881 5.9668 216.544C6.14453 216.207 6.39518 215.917 6.71875 215.676C7.04232 215.43 7.42285 215.241 7.86035 215.108C8.30241 214.976 8.79004 214.91 9.32324 214.91C10.0615 214.91 10.6995 215.045 11.2373 215.313C11.7796 215.582 12.1989 215.947 12.4951 216.407C12.7913 216.868 12.9395 217.385 12.9395 217.959H11.0664C11.0664 217.649 11.0003 217.376 10.8682 217.139C10.7406 216.902 10.5446 216.715 10.2803 216.578C10.0205 216.441 9.69238 216.373 9.2959 216.373C8.91309 216.373 8.59408 216.43 8.33887 216.544C8.08822 216.658 7.89909 216.813 7.77148 217.009C7.64844 217.205 7.58691 217.424 7.58691 217.665C7.58691 217.847 7.63021 218.011 7.7168 218.157C7.80339 218.299 7.93327 218.433 8.10645 218.561C8.27962 218.684 8.49382 218.8 8.74902 218.909C9.00879 219.014 9.30957 219.119 9.65137 219.224C10.1982 219.388 10.6768 219.57 11.0869 219.771C11.5016 219.971 11.8457 220.199 12.1191 220.454C12.3971 220.709 12.6045 220.996 12.7412 221.315C12.8825 221.634 12.9531 221.997 12.9531 222.402C12.9531 222.831 12.8688 223.214 12.7002 223.551C12.5316 223.888 12.29 224.175 11.9756 224.412C11.6611 224.649 11.2829 224.829 10.8408 224.952C10.4033 225.075 9.91341 225.137 9.37109 225.137C8.88802 225.137 8.40951 225.073 7.93555 224.945C7.46615 224.813 7.04004 224.617 6.65723 224.357C6.27441 224.093 5.96908 223.76 5.74121 223.359C5.51335 222.954 5.39941 222.48 5.39941 221.938H7.28613C7.28613 222.252 7.33626 222.521 7.43652 222.744C7.54134 222.963 7.68717 223.143 7.87402 223.284C8.06543 223.421 8.28874 223.521 8.54395 223.585C8.79915 223.649 9.07487 223.681 9.37109 223.681C9.75391 223.681 10.0684 223.628 10.3145 223.523C10.5651 223.414 10.752 223.264 10.875 223.072C11.0026 222.881 11.0664 222.662 11.0664 222.416ZM18.668 223.243V217.604H20.4863V225H18.7773L18.668 223.243ZM18.9004 221.712L19.4609 221.698C19.4609 222.195 19.4062 222.653 19.2969 223.072C19.1875 223.492 19.0166 223.856 18.7842 224.166C18.5563 224.471 18.2669 224.711 17.916 224.884C17.5651 225.052 17.1504 225.137 16.6719 225.137C16.3073 225.137 15.9746 225.087 15.6738 224.986C15.373 224.882 15.1133 224.72 14.8945 224.501C14.6803 224.278 14.514 223.993 14.3955 223.646C14.277 223.296 14.2178 222.874 14.2178 222.382V217.604H16.0225V222.396C16.0225 222.642 16.0498 222.847 16.1045 223.011C16.1637 223.175 16.2435 223.309 16.3438 223.414C16.4486 223.514 16.5693 223.587 16.7061 223.633C16.8473 223.674 16.9977 223.694 17.1572 223.694C17.5947 223.694 17.9388 223.608 18.1895 223.435C18.4447 223.257 18.627 223.02 18.7363 222.724C18.8457 222.423 18.9004 222.086 18.9004 221.712ZM23.8564 219.183V225H22.0518V217.604H23.7471L23.8564 219.183ZM23.5693 221.035H23.0361C23.0407 220.497 23.1136 220.01 23.2549 219.572C23.3962 219.135 23.5944 218.759 23.8496 218.444C24.1094 218.13 24.417 217.888 24.7725 217.72C25.1279 217.551 25.5244 217.467 25.9619 217.467C26.3174 217.467 26.6387 217.517 26.9258 217.617C27.2129 217.717 27.459 217.877 27.6641 218.096C27.8737 218.314 28.0332 218.602 28.1426 218.957C28.2565 219.308 28.3135 219.741 28.3135 220.256V225H26.4951V220.242C26.4951 219.905 26.445 219.638 26.3447 219.442C26.249 219.246 26.1077 219.107 25.9209 219.025C25.7386 218.943 25.513 218.902 25.2441 218.902C24.9661 218.902 24.7223 218.959 24.5127 219.073C24.3076 219.183 24.1344 219.335 23.9932 219.531C23.8564 219.727 23.7516 219.953 23.6787 220.208C23.6058 220.463 23.5693 220.739 23.5693 221.035Z" fill="#686868"/>
<rect x="50" y="151" width="34" height="45" rx="2" fill="#E0F0E5"/>
<path d="M54.7705 215.047H56.3975L59.1182 222.539L61.832 215.047H63.4658L59.7676 225H58.4619L54.7705 215.047ZM53.9502 215.047H55.543L55.8301 221.931V225H53.9502V215.047ZM62.6865 215.047H64.2861V225H62.4062V221.931L62.6865 215.047ZM65.7422 221.377V221.233C65.7422 220.691 65.8197 220.192 65.9746 219.736C66.1296 219.276 66.3551 218.877 66.6514 218.54C66.9476 218.203 67.3099 217.941 67.7383 217.754C68.1667 217.562 68.6543 217.467 69.2012 217.467C69.7572 217.467 70.2493 217.562 70.6777 217.754C71.1107 217.941 71.4753 218.203 71.7715 218.54C72.0677 218.877 72.2933 219.276 72.4482 219.736C72.6032 220.192 72.6807 220.691 72.6807 221.233V221.377C72.6807 221.915 72.6032 222.414 72.4482 222.874C72.2933 223.33 72.0677 223.729 71.7715 224.07C71.4753 224.408 71.113 224.67 70.6846 224.856C70.2562 225.043 69.7663 225.137 69.2148 225.137C68.668 225.137 68.1781 225.043 67.7451 224.856C67.3122 224.67 66.9476 224.408 66.6514 224.07C66.3551 223.729 66.1296 223.33 65.9746 222.874C65.8197 222.414 65.7422 221.915 65.7422 221.377ZM67.5469 221.233V221.377C67.5469 221.701 67.5788 222.004 67.6426 222.286C67.7064 222.569 67.8044 222.817 67.9365 223.031C68.0687 223.245 68.2396 223.414 68.4492 223.537C68.6634 223.656 68.9186 223.715 69.2148 223.715C69.5065 223.715 69.7572 223.656 69.9668 223.537C70.1764 223.414 70.3473 223.245 70.4795 223.031C70.6162 222.817 70.7165 222.569 70.7803 222.286C70.8441 222.004 70.876 221.701 70.876 221.377V221.233C70.876 220.914 70.8441 220.616 70.7803 220.338C70.7165 220.055 70.6162 219.807 70.4795 219.593C70.3473 219.374 70.1742 219.203 69.96 219.08C69.7503 218.952 69.4974 218.889 69.2012 218.889C68.9095 218.889 68.6589 218.952 68.4492 219.08C68.2396 219.203 68.0687 219.374 67.9365 219.593C67.8044 219.807 67.7064 220.055 67.6426 220.338C67.5788 220.616 67.5469 220.914 67.5469 221.233ZM75.7637 219.183V225H73.959V217.604H75.6543L75.7637 219.183ZM75.4766 221.035H74.9434C74.9479 220.497 75.0208 220.01 75.1621 219.572C75.3034 219.135 75.5016 218.759 75.7568 218.444C76.0166 218.13 76.3242 217.888 76.6797 217.72C77.0352 217.551 77.4316 217.467 77.8691 217.467C78.2246 217.467 78.5459 217.517 78.833 217.617C79.1201 217.717 79.3662 217.877 79.5713 218.096C79.7809 218.314 79.9404 218.602 80.0498 218.957C80.1637 219.308 80.2207 219.741 80.2207 220.256V225H78.4023V220.242C78.4023 219.905 78.3522 219.638 78.252 219.442C78.1562 219.246 78.015 219.107 77.8281 219.025C77.6458 218.943 77.4202 218.902 77.1514 218.902C76.8734 218.902 76.6296 218.959 76.4199 219.073C76.2148 219.183 76.0417 219.335 75.9004 219.531C75.7637 219.727 75.6589 219.953 75.5859 220.208C75.513 220.463 75.4766 220.739 75.4766 221.035Z" fill="#686868"/>
<rect x="100" y="108" width="34" height="88" rx="2" fill="#E0F0E5"/>
<path d="M110.513 215.047V225H108.64V215.047H110.513ZM113.603 215.047V216.53H105.584V215.047H113.603ZM118.572 223.243V217.604H120.391V225H118.682L118.572 223.243ZM118.805 221.712L119.365 221.698C119.365 222.195 119.311 222.653 119.201 223.072C119.092 223.492 118.921 223.856 118.688 224.166C118.461 224.471 118.171 224.711 117.82 224.884C117.469 225.052 117.055 225.137 116.576 225.137C116.212 225.137 115.879 225.087 115.578 224.986C115.277 224.882 115.018 224.72 114.799 224.501C114.585 224.278 114.418 223.993 114.3 223.646C114.181 223.296 114.122 222.874 114.122 222.382V217.604H115.927V222.396C115.927 222.642 115.954 222.847 116.009 223.011C116.068 223.175 116.148 223.309 116.248 223.414C116.353 223.514 116.474 223.587 116.61 223.633C116.752 223.674 116.902 223.694 117.062 223.694C117.499 223.694 117.843 223.608 118.094 223.435C118.349 223.257 118.531 223.02 118.641 222.724C118.75 222.423 118.805 222.086 118.805 221.712ZM125.312 225.137C124.752 225.137 124.248 225.046 123.802 224.863C123.355 224.681 122.975 224.428 122.66 224.104C122.35 223.776 122.111 223.396 121.942 222.963C121.778 222.525 121.696 222.056 121.696 221.555V221.281C121.696 220.712 121.778 220.194 121.942 219.729C122.106 219.26 122.339 218.857 122.64 218.52C122.94 218.182 123.3 217.923 123.72 217.74C124.139 217.558 124.602 217.467 125.107 217.467C125.632 217.467 126.094 217.556 126.495 217.733C126.896 217.907 127.231 218.153 127.5 218.472C127.769 218.791 127.972 219.174 128.108 219.62C128.245 220.062 128.313 220.552 128.313 221.09V221.849H122.517V220.604H126.536V220.468C126.527 220.181 126.472 219.919 126.372 219.682C126.272 219.44 126.117 219.249 125.907 219.107C125.698 218.962 125.426 218.889 125.094 218.889C124.825 218.889 124.59 218.948 124.39 219.066C124.194 219.18 124.03 219.344 123.897 219.559C123.77 219.768 123.674 220.019 123.61 220.311C123.547 220.602 123.515 220.926 123.515 221.281V221.555C123.515 221.865 123.556 222.152 123.638 222.416C123.724 222.68 123.85 222.91 124.014 223.106C124.182 223.298 124.383 223.448 124.615 223.558C124.852 223.662 125.121 223.715 125.422 223.715C125.8 223.715 126.142 223.642 126.447 223.496C126.757 223.346 127.026 223.125 127.254 222.833L128.163 223.776C128.008 224.004 127.799 224.223 127.534 224.433C127.274 224.642 126.96 224.813 126.591 224.945C126.222 225.073 125.796 225.137 125.312 225.137Z" fill="#686868"/>
<rect x="150" y="125" width="34" height="71" rx="2" fill="#E0F0E5"/>
<path d="M156.65 223.093L158.633 215.047H159.706L159.774 216.742L157.655 225H156.521L156.65 223.093ZM155.399 215.047L157.026 223.065V225H155.789L153.533 215.047H155.399ZM161.832 223.031L163.432 215.047H165.305L163.049 225H161.812L161.832 223.031ZM160.219 215.047L162.201 223.12L162.317 225H161.183L159.07 216.735L159.152 215.047H160.219ZM169.461 225.137C168.9 225.137 168.397 225.046 167.95 224.863C167.504 224.681 167.123 224.428 166.809 224.104C166.499 223.776 166.259 223.396 166.091 222.963C165.927 222.525 165.845 222.056 165.845 221.555V221.281C165.845 220.712 165.927 220.194 166.091 219.729C166.255 219.26 166.487 218.857 166.788 218.52C167.089 218.182 167.449 217.923 167.868 217.74C168.287 217.558 168.75 217.467 169.256 217.467C169.78 217.467 170.243 217.556 170.644 217.733C171.045 217.907 171.38 218.153 171.648 218.472C171.917 218.791 172.12 219.174 172.257 219.62C172.394 220.062 172.462 220.552 172.462 221.09V221.849H166.665V220.604H170.685V220.468C170.675 220.181 170.621 219.919 170.521 219.682C170.42 219.44 170.265 219.249 170.056 219.107C169.846 218.962 169.575 218.889 169.242 218.889C168.973 218.889 168.739 218.948 168.538 219.066C168.342 219.18 168.178 219.344 168.046 219.559C167.918 219.768 167.823 220.019 167.759 220.311C167.695 220.602 167.663 220.926 167.663 221.281V221.555C167.663 221.865 167.704 222.152 167.786 222.416C167.873 222.68 167.998 222.91 168.162 223.106C168.331 223.298 168.531 223.448 168.764 223.558C169.001 223.662 169.27 223.715 169.57 223.715C169.949 223.715 170.29 223.642 170.596 223.496C170.906 223.346 171.174 223.125 171.402 222.833L172.312 223.776C172.157 224.004 171.947 224.223 171.683 224.433C171.423 224.642 171.108 224.813 170.739 224.945C170.37 225.073 169.944 225.137 169.461 225.137ZM178.108 223.428V214.5H179.927V225H178.286L178.108 223.428ZM173.357 221.391V221.247C173.357 220.682 173.421 220.169 173.549 219.709C173.681 219.244 173.872 218.845 174.123 218.513C174.374 218.18 174.677 217.923 175.032 217.74C175.392 217.558 175.8 217.467 176.256 217.467C176.698 217.467 177.083 217.556 177.411 217.733C177.744 217.911 178.026 218.164 178.259 218.492C178.496 218.82 178.685 219.21 178.826 219.661C178.967 220.108 179.07 220.6 179.134 221.138V221.527C179.07 222.051 178.967 222.532 178.826 222.97C178.685 223.407 178.496 223.79 178.259 224.118C178.026 224.442 177.744 224.692 177.411 224.87C177.078 225.048 176.689 225.137 176.242 225.137C175.791 225.137 175.385 225.043 175.025 224.856C174.67 224.67 174.367 224.408 174.116 224.07C173.87 223.733 173.681 223.337 173.549 222.881C173.421 222.425 173.357 221.928 173.357 221.391ZM175.169 221.247V221.391C175.169 221.71 175.196 222.008 175.251 222.286C175.306 222.564 175.395 222.81 175.518 223.024C175.641 223.234 175.798 223.398 175.989 223.517C176.185 223.635 176.422 223.694 176.7 223.694C177.056 223.694 177.347 223.617 177.575 223.462C177.808 223.302 177.988 223.086 178.115 222.812C178.243 222.535 178.325 222.222 178.361 221.876V220.803C178.343 220.529 178.295 220.276 178.218 220.044C178.145 219.812 178.04 219.611 177.903 219.442C177.771 219.274 177.607 219.142 177.411 219.046C177.215 218.95 176.983 218.902 176.714 218.902C176.436 218.902 176.199 218.964 176.003 219.087C175.807 219.205 175.647 219.372 175.524 219.586C175.401 219.8 175.31 220.049 175.251 220.331C175.196 220.614 175.169 220.919 175.169 221.247Z" fill="#686868"/>
<rect x="200" y="53" width="34" height="143" rx="2" fill="#0F4E23"/>
<path d="M210.096 215.047V225H208.223V215.047H210.096ZM213.186 215.047V216.53H205.167V215.047H213.186ZM216.07 214.5V225H214.259V214.5H216.07ZM215.783 221.035H215.25C215.25 220.52 215.318 220.046 215.455 219.613C215.592 219.18 215.785 218.804 216.036 218.485C216.287 218.162 216.585 217.911 216.932 217.733C217.283 217.556 217.67 217.467 218.094 217.467C218.458 217.467 218.789 217.519 219.085 217.624C219.386 217.724 219.643 217.886 219.857 218.109C220.072 218.333 220.236 218.624 220.35 218.984C220.468 219.34 220.527 219.773 220.527 220.283V225H218.709V220.27C218.709 219.928 218.659 219.659 218.559 219.463C218.458 219.262 218.315 219.119 218.128 219.032C217.946 218.946 217.72 218.902 217.451 218.902C217.16 218.902 216.909 218.959 216.699 219.073C216.49 219.183 216.316 219.335 216.18 219.531C216.048 219.727 215.947 219.953 215.879 220.208C215.815 220.463 215.783 220.739 215.783 221.035ZM226.522 223.243V217.604H228.341V225H226.632L226.522 223.243ZM226.755 221.712L227.315 221.698C227.315 222.195 227.261 222.653 227.151 223.072C227.042 223.492 226.871 223.856 226.639 224.166C226.411 224.471 226.121 224.711 225.771 224.884C225.42 225.052 225.005 225.137 224.526 225.137C224.162 225.137 223.829 225.087 223.528 224.986C223.228 224.882 222.968 224.72 222.749 224.501C222.535 224.278 222.368 223.993 222.25 223.646C222.132 223.296 222.072 222.874 222.072 222.382V217.604H223.877V222.396C223.877 222.642 223.904 222.847 223.959 223.011C224.018 223.175 224.098 223.309 224.198 223.414C224.303 223.514 224.424 223.587 224.561 223.633C224.702 223.674 224.852 223.694 225.012 223.694C225.449 223.694 225.793 223.608 226.044 223.435C226.299 223.257 226.481 223.02 226.591 222.724C226.7 222.423 226.755 222.086 226.755 221.712Z" fill="#686868"/>
<rect x="250" y="139" width="34" height="57" rx="2" fill="#DAFFC2"/>
<path d="M261.729 215.047V225H259.85V215.047H261.729ZM265.742 219.347V220.83H261.237V219.347H265.742ZM266.269 215.047V216.53H261.237V215.047H266.269ZM269.037 219.114V225H267.232V217.604H268.941L269.037 219.114ZM271.286 217.556L271.259 219.237C271.159 219.219 271.045 219.205 270.917 219.196C270.794 219.187 270.678 219.183 270.568 219.183C270.29 219.183 270.047 219.221 269.837 219.299C269.627 219.372 269.452 219.479 269.311 219.62C269.174 219.761 269.069 219.935 268.996 220.14C268.923 220.34 268.882 220.568 268.873 220.823L268.483 220.775C268.483 220.306 268.531 219.871 268.627 219.47C268.723 219.069 268.862 218.718 269.044 218.417C269.226 218.116 269.454 217.884 269.728 217.72C270.006 217.551 270.325 217.467 270.685 217.467C270.785 217.467 270.892 217.476 271.006 217.494C271.124 217.508 271.218 217.528 271.286 217.556ZM274.191 217.604V225H272.38V217.604H274.191ZM272.257 215.669C272.257 215.4 272.348 215.177 272.53 214.999C272.717 214.821 272.968 214.732 273.282 214.732C273.597 214.732 273.845 214.821 274.027 214.999C274.214 215.177 274.308 215.4 274.308 215.669C274.308 215.933 274.214 216.154 274.027 216.332C273.845 216.51 273.597 216.599 273.282 216.599C272.968 216.599 272.717 216.51 272.53 216.332C272.348 216.154 272.257 215.933 272.257 215.669Z" fill="#686868"/>
<rect x="300" y="90" width="34" height="106" rx="2" fill="#E0F0E5"/>
<path d="M312.775 222.416C312.775 222.225 312.746 222.054 312.687 221.903C312.632 221.748 312.529 221.609 312.379 221.486C312.233 221.359 312.026 221.236 311.757 221.117C311.493 220.994 311.151 220.867 310.731 220.734C310.267 220.589 309.834 220.424 309.433 220.242C309.032 220.06 308.678 219.848 308.373 219.606C308.072 219.365 307.838 219.087 307.669 218.772C307.5 218.453 307.416 218.084 307.416 217.665C307.416 217.255 307.503 216.881 307.676 216.544C307.854 216.207 308.104 215.917 308.428 215.676C308.751 215.43 309.132 215.241 309.569 215.108C310.011 214.976 310.499 214.91 311.032 214.91C311.771 214.91 312.409 215.045 312.946 215.313C313.489 215.582 313.908 215.947 314.204 216.407C314.5 216.868 314.648 217.385 314.648 217.959H312.775C312.775 217.649 312.709 217.376 312.577 217.139C312.45 216.902 312.254 216.715 311.989 216.578C311.729 216.441 311.401 216.373 311.005 216.373C310.622 216.373 310.303 216.43 310.048 216.544C309.797 216.658 309.608 216.813 309.48 217.009C309.357 217.205 309.296 217.424 309.296 217.665C309.296 217.847 309.339 218.011 309.426 218.157C309.512 218.299 309.642 218.433 309.815 218.561C309.989 218.684 310.203 218.8 310.458 218.909C310.718 219.014 311.019 219.119 311.36 219.224C311.907 219.388 312.386 219.57 312.796 219.771C313.211 219.971 313.555 220.199 313.828 220.454C314.106 220.709 314.313 220.996 314.45 221.315C314.591 221.634 314.662 221.997 314.662 222.402C314.662 222.831 314.578 223.214 314.409 223.551C314.241 223.888 313.999 224.175 313.685 224.412C313.37 224.649 312.992 224.829 312.55 224.952C312.112 225.075 311.622 225.137 311.08 225.137C310.597 225.137 310.118 225.073 309.645 224.945C309.175 224.813 308.749 224.617 308.366 224.357C307.983 224.093 307.678 223.76 307.45 223.359C307.222 222.954 307.108 222.48 307.108 221.938H308.995C308.995 222.252 309.045 222.521 309.146 222.744C309.25 222.963 309.396 223.143 309.583 223.284C309.774 223.421 309.998 223.521 310.253 223.585C310.508 223.649 310.784 223.681 311.08 223.681C311.463 223.681 311.777 223.628 312.023 223.523C312.274 223.414 312.461 223.264 312.584 223.072C312.712 222.881 312.775 222.662 312.775 222.416ZM320.049 223.428V220.017C320.049 219.766 320.006 219.549 319.919 219.367C319.832 219.185 319.7 219.044 319.522 218.943C319.345 218.843 319.119 218.793 318.846 218.793C318.604 218.793 318.392 218.834 318.21 218.916C318.032 218.998 317.896 219.114 317.8 219.265C317.704 219.41 317.656 219.579 317.656 219.771H315.845C315.845 219.465 315.918 219.176 316.063 218.902C316.209 218.624 316.417 218.378 316.686 218.164C316.959 217.945 317.285 217.774 317.663 217.651C318.046 217.528 318.474 217.467 318.948 217.467C319.509 217.467 320.008 217.562 320.445 217.754C320.887 217.941 321.234 218.223 321.484 218.602C321.74 218.98 321.867 219.456 321.867 220.03V223.257C321.867 223.626 321.89 223.943 321.936 224.207C321.986 224.467 322.059 224.692 322.154 224.884V225H320.315C320.229 224.813 320.163 224.576 320.117 224.289C320.072 223.997 320.049 223.71 320.049 223.428ZM320.302 220.495L320.315 221.568H319.174C318.891 221.568 318.643 221.598 318.429 221.657C318.215 221.712 318.039 221.794 317.902 221.903C317.766 222.008 317.663 222.136 317.595 222.286C317.526 222.432 317.492 222.598 317.492 222.785C317.492 222.967 317.533 223.132 317.615 223.277C317.702 223.423 317.825 223.539 317.984 223.626C318.148 223.708 318.34 223.749 318.559 223.749C318.878 223.749 319.156 223.685 319.393 223.558C319.63 223.425 319.814 223.266 319.946 223.079C320.078 222.892 320.149 222.715 320.158 222.546L320.678 223.325C320.614 223.512 320.518 223.71 320.391 223.92C320.263 224.13 320.099 224.326 319.898 224.508C319.698 224.69 319.456 224.84 319.174 224.959C318.891 225.077 318.563 225.137 318.189 225.137C317.711 225.137 317.283 225.041 316.904 224.85C316.526 224.658 316.228 224.396 316.009 224.063C315.79 223.731 315.681 223.353 315.681 222.929C315.681 222.537 315.754 222.19 315.899 221.89C316.045 221.589 316.262 221.336 316.549 221.131C316.836 220.921 317.191 220.764 317.615 220.659C318.044 220.55 318.534 220.495 319.085 220.495H320.302ZM326.994 217.604V218.902H322.756V217.604H326.994ZM323.891 215.785H325.702V222.867C325.702 223.086 325.732 223.255 325.791 223.373C325.85 223.492 325.939 223.571 326.058 223.612C326.176 223.653 326.317 223.674 326.481 223.674C326.6 223.674 326.709 223.667 326.81 223.653C326.91 223.64 326.994 223.626 327.062 223.612L327.069 224.966C326.919 225.016 326.748 225.057 326.557 225.089C326.37 225.121 326.158 225.137 325.921 225.137C325.515 225.137 325.16 225.068 324.854 224.932C324.549 224.79 324.312 224.565 324.144 224.255C323.975 223.94 323.891 223.526 323.891 223.011V215.785Z" fill="#686868"/>
<rect x="140" width="135" height="87" rx="12" fill="#F1F68E"/>
<path d="M165.844 21.7051V23.085H158.918V21.7051H165.844ZM159.182 16.2031V29H157.485V16.2031H159.182ZM167.32 16.2031V29H165.633V16.2031H167.32ZM171.855 19.4902V29H170.221V19.4902H171.855ZM170.098 16.9678C170.098 16.7041 170.177 16.4814 170.335 16.2998C170.499 16.1182 170.739 16.0273 171.056 16.0273C171.366 16.0273 171.604 16.1182 171.768 16.2998C171.938 16.4814 172.022 16.7041 172.022 16.9678C172.022 17.2197 171.938 17.4365 171.768 17.6182C171.604 17.7939 171.366 17.8818 171.056 17.8818C170.739 17.8818 170.499 17.7939 170.335 17.6182C170.177 17.4365 170.098 17.2197 170.098 16.9678ZM180.627 19.4902H182.104V28.7979C182.104 29.6357 181.934 30.3506 181.594 30.9424C181.254 31.5342 180.779 31.9824 180.17 32.2871C179.566 32.5977 178.869 32.7529 178.078 32.7529C177.75 32.7529 177.363 32.7002 176.918 32.5947C176.479 32.4951 176.045 32.3223 175.617 32.0762C175.195 31.8359 174.841 31.5107 174.554 31.1006L175.406 30.1338C175.805 30.6143 176.221 30.9482 176.654 31.1357C177.094 31.3232 177.527 31.417 177.955 31.417C178.471 31.417 178.916 31.3203 179.291 31.127C179.666 30.9336 179.956 30.6465 180.161 30.2656C180.372 29.8906 180.478 29.4277 180.478 28.877V21.582L180.627 19.4902ZM174.079 24.3506V24.166C174.079 23.4395 174.164 22.7803 174.334 22.1885C174.51 21.5908 174.759 21.0781 175.081 20.6504C175.409 20.2227 175.805 19.8945 176.268 19.666C176.73 19.4316 177.252 19.3145 177.832 19.3145C178.43 19.3145 178.951 19.4199 179.396 19.6309C179.848 19.8359 180.229 20.1377 180.539 20.5361C180.855 20.9287 181.104 21.4033 181.286 21.96C181.468 22.5166 181.594 23.1465 181.664 23.8496V24.6582C181.6 25.3555 181.474 25.9824 181.286 26.5391C181.104 27.0957 180.855 27.5703 180.539 27.9629C180.229 28.3555 179.848 28.6572 179.396 28.8682C178.945 29.0732 178.418 29.1758 177.814 29.1758C177.246 29.1758 176.73 29.0557 176.268 28.8154C175.811 28.5752 175.418 28.2383 175.09 27.8047C174.762 27.3711 174.51 26.8613 174.334 26.2754C174.164 25.6836 174.079 25.042 174.079 24.3506ZM175.705 24.166V24.3506C175.705 24.8252 175.752 25.2705 175.846 25.6865C175.945 26.1025 176.095 26.4688 176.294 26.7852C176.499 27.1016 176.76 27.3506 177.076 27.5322C177.393 27.708 177.771 27.7959 178.21 27.7959C178.749 27.7959 179.194 27.6816 179.546 27.4531C179.897 27.2246 180.176 26.9229 180.381 26.5479C180.592 26.1729 180.756 25.7656 180.873 25.3262V23.208C180.809 22.8857 180.709 22.5752 180.574 22.2764C180.445 21.9717 180.275 21.7021 180.064 21.4678C179.859 21.2275 179.604 21.0371 179.3 20.8965C178.995 20.7559 178.638 20.6855 178.228 20.6855C177.782 20.6855 177.398 20.7793 177.076 20.9668C176.76 21.1484 176.499 21.4004 176.294 21.7227C176.095 22.0391 175.945 22.4082 175.846 22.8301C175.752 23.2461 175.705 23.6914 175.705 24.166ZM186.199 15.5V29H184.573V15.5H186.199ZM185.812 23.8848L185.136 23.8584C185.142 23.208 185.238 22.6074 185.426 22.0566C185.613 21.5 185.877 21.0166 186.217 20.6064C186.557 20.1963 186.961 19.8799 187.43 19.6572C187.904 19.4287 188.429 19.3145 189.003 19.3145C189.472 19.3145 189.894 19.3789 190.269 19.5078C190.644 19.6309 190.963 19.8301 191.227 20.1055C191.496 20.3809 191.701 20.7383 191.842 21.1777C191.982 21.6113 192.053 22.1416 192.053 22.7686V29H190.418V22.751C190.418 22.2529 190.345 21.8545 190.198 21.5557C190.052 21.251 189.838 21.0312 189.557 20.8965C189.275 20.7559 188.93 20.6855 188.52 20.6855C188.115 20.6855 187.746 20.7705 187.412 20.9404C187.084 21.1104 186.8 21.3447 186.56 21.6436C186.325 21.9424 186.141 22.2852 186.006 22.6719C185.877 23.0527 185.812 23.457 185.812 23.8848ZM198.434 29.1758C197.771 29.1758 197.171 29.0645 196.632 28.8418C196.099 28.6133 195.639 28.2939 195.252 27.8838C194.871 27.4736 194.578 26.9873 194.373 26.4248C194.168 25.8623 194.065 25.2471 194.065 24.5791V24.21C194.065 23.4365 194.18 22.748 194.408 22.1445C194.637 21.5352 194.947 21.0195 195.34 20.5977C195.732 20.1758 196.178 19.8564 196.676 19.6396C197.174 19.4229 197.689 19.3145 198.223 19.3145C198.902 19.3145 199.488 19.4316 199.98 19.666C200.479 19.9004 200.886 20.2285 201.202 20.6504C201.519 21.0664 201.753 21.5586 201.905 22.127C202.058 22.6895 202.134 23.3047 202.134 23.9727V24.7021H195.032V23.375H200.508V23.252C200.484 22.8301 200.396 22.4199 200.244 22.0215C200.098 21.623 199.863 21.2949 199.541 21.0371C199.219 20.7793 198.779 20.6504 198.223 20.6504C197.854 20.6504 197.514 20.7295 197.203 20.8877C196.893 21.04 196.626 21.2686 196.403 21.5732C196.181 21.8779 196.008 22.25 195.885 22.6895C195.762 23.1289 195.7 23.6357 195.7 24.21V24.5791C195.7 25.0303 195.762 25.4551 195.885 25.8535C196.014 26.2461 196.198 26.5918 196.438 26.8906C196.685 27.1895 196.98 27.4238 197.326 27.5938C197.678 27.7637 198.076 27.8486 198.521 27.8486C199.096 27.8486 199.582 27.7314 199.98 27.4971C200.379 27.2627 200.728 26.9492 201.026 26.5566L202.011 27.3389C201.806 27.6494 201.545 27.9453 201.229 28.2266C200.912 28.5078 200.522 28.7363 200.06 28.9121C199.603 29.0879 199.061 29.1758 198.434 29.1758ZM209.569 26.4775C209.569 26.2432 209.517 26.0264 209.411 25.8271C209.312 25.6221 209.104 25.4375 208.787 25.2734C208.477 25.1035 208.008 24.957 207.381 24.834C206.854 24.7227 206.376 24.5908 205.948 24.4385C205.526 24.2861 205.166 24.1016 204.867 23.8848C204.574 23.668 204.349 23.4131 204.19 23.1201C204.032 22.8271 203.953 22.4844 203.953 22.0918C203.953 21.7168 204.035 21.3623 204.199 21.0283C204.369 20.6943 204.606 20.3984 204.911 20.1406C205.222 19.8828 205.594 19.6807 206.027 19.5342C206.461 19.3877 206.944 19.3145 207.478 19.3145C208.239 19.3145 208.89 19.4492 209.429 19.7188C209.968 19.9883 210.381 20.3486 210.668 20.7998C210.955 21.2451 211.099 21.7402 211.099 22.2852H209.473C209.473 22.0215 209.394 21.7666 209.235 21.5205C209.083 21.2686 208.857 21.0605 208.559 20.8965C208.266 20.7324 207.905 20.6504 207.478 20.6504C207.026 20.6504 206.66 20.7207 206.379 20.8613C206.104 20.9961 205.901 21.1689 205.772 21.3799C205.649 21.5908 205.588 21.8135 205.588 22.0479C205.588 22.2236 205.617 22.3818 205.676 22.5225C205.74 22.6572 205.852 22.7832 206.01 22.9004C206.168 23.0117 206.391 23.1172 206.678 23.2168C206.965 23.3164 207.331 23.416 207.776 23.5156C208.556 23.6914 209.197 23.9023 209.701 24.1484C210.205 24.3945 210.58 24.6963 210.826 25.0537C211.072 25.4111 211.195 25.8447 211.195 26.3545C211.195 26.7705 211.107 27.1514 210.932 27.4971C210.762 27.8428 210.513 28.1416 210.185 28.3936C209.862 28.6396 209.476 28.833 209.024 28.9736C208.579 29.1084 208.078 29.1758 207.521 29.1758C206.684 29.1758 205.975 29.0264 205.395 28.7275C204.814 28.4287 204.375 28.042 204.076 27.5674C203.777 27.0928 203.628 26.5918 203.628 26.0645H205.263C205.286 26.5098 205.415 26.8643 205.649 27.1279C205.884 27.3857 206.171 27.5703 206.511 27.6816C206.851 27.7871 207.188 27.8398 207.521 27.8398C207.967 27.8398 208.339 27.7812 208.638 27.6641C208.942 27.5469 209.174 27.3857 209.332 27.1807C209.49 26.9756 209.569 26.7412 209.569 26.4775ZM217.312 19.4902V20.7383H212.171V19.4902H217.312ZM213.911 17.1787H215.537V26.6445C215.537 26.9668 215.587 27.21 215.687 27.374C215.786 27.5381 215.915 27.6465 216.073 27.6992C216.231 27.752 216.401 27.7783 216.583 27.7783C216.718 27.7783 216.858 27.7666 217.005 27.7432C217.157 27.7139 217.271 27.6904 217.348 27.6729L217.356 29C217.228 29.041 217.058 29.0791 216.847 29.1143C216.642 29.1553 216.393 29.1758 216.1 29.1758C215.701 29.1758 215.335 29.0967 215.001 28.9385C214.667 28.7803 214.4 28.5166 214.201 28.1475C214.008 27.7725 213.911 27.2686 213.911 26.6357V17.1787ZM229.222 26.4775C229.222 26.2432 229.169 26.0264 229.063 25.8271C228.964 25.6221 228.756 25.4375 228.439 25.2734C228.129 25.1035 227.66 24.957 227.033 24.834C226.506 24.7227 226.028 24.5908 225.601 24.4385C225.179 24.2861 224.818 24.1016 224.52 23.8848C224.227 23.668 224.001 23.4131 223.843 23.1201C223.685 22.8271 223.605 22.4844 223.605 22.0918C223.605 21.7168 223.688 21.3623 223.852 21.0283C224.021 20.6943 224.259 20.3984 224.563 20.1406C224.874 19.8828 225.246 19.6807 225.68 19.5342C226.113 19.3877 226.597 19.3145 227.13 19.3145C227.892 19.3145 228.542 19.4492 229.081 19.7188C229.62 19.9883 230.033 20.3486 230.32 20.7998C230.607 21.2451 230.751 21.7402 230.751 22.2852H229.125C229.125 22.0215 229.046 21.7666 228.888 21.5205C228.735 21.2686 228.51 21.0605 228.211 20.8965C227.918 20.7324 227.558 20.6504 227.13 20.6504C226.679 20.6504 226.312 20.7207 226.031 20.8613C225.756 20.9961 225.554 21.1689 225.425 21.3799C225.302 21.5908 225.24 21.8135 225.24 22.0479C225.24 22.2236 225.27 22.3818 225.328 22.5225C225.393 22.6572 225.504 22.7832 225.662 22.9004C225.82 23.0117 226.043 23.1172 226.33 23.2168C226.617 23.3164 226.983 23.416 227.429 23.5156C228.208 23.6914 228.85 23.9023 229.354 24.1484C229.857 24.3945 230.232 24.6963 230.479 25.0537C230.725 25.4111 230.848 25.8447 230.848 26.3545C230.848 26.7705 230.76 27.1514 230.584 27.4971C230.414 27.8428 230.165 28.1416 229.837 28.3936C229.515 28.6396 229.128 28.833 228.677 28.9736C228.231 29.1084 227.73 29.1758 227.174 29.1758C226.336 29.1758 225.627 29.0264 225.047 28.7275C224.467 28.4287 224.027 28.042 223.729 27.5674C223.43 27.0928 223.28 26.5918 223.28 26.0645H224.915C224.938 26.5098 225.067 26.8643 225.302 27.1279C225.536 27.3857 225.823 27.5703 226.163 27.6816C226.503 27.7871 226.84 27.8398 227.174 27.8398C227.619 27.8398 227.991 27.7812 228.29 27.6641C228.595 27.5469 228.826 27.3857 228.984 27.1807C229.143 26.9756 229.222 26.7412 229.222 26.4775ZM238.591 27.374V22.4785C238.591 22.1035 238.515 21.7783 238.362 21.5029C238.216 21.2217 237.993 21.0049 237.694 20.8525C237.396 20.7002 237.026 20.624 236.587 20.624C236.177 20.624 235.816 20.6943 235.506 20.835C235.201 20.9756 234.961 21.1602 234.785 21.3887C234.615 21.6172 234.53 21.8633 234.53 22.127H232.904C232.904 21.7871 232.992 21.4502 233.168 21.1162C233.344 20.7822 233.596 20.4805 233.924 20.2109C234.258 19.9355 234.656 19.7188 235.119 19.5605C235.588 19.3965 236.109 19.3145 236.684 19.3145C237.375 19.3145 237.984 19.4316 238.512 19.666C239.045 19.9004 239.461 20.2549 239.76 20.7295C240.064 21.1982 240.217 21.7871 240.217 22.4961V26.9258C240.217 27.2422 240.243 27.5791 240.296 27.9365C240.354 28.2939 240.439 28.6016 240.551 28.8594V29H238.854C238.772 28.8125 238.708 28.5635 238.661 28.2529C238.614 27.9365 238.591 27.6436 238.591 27.374ZM238.872 23.2344L238.89 24.377H237.246C236.783 24.377 236.37 24.415 236.007 24.4912C235.644 24.5615 235.339 24.6699 235.093 24.8164C234.847 24.9629 234.659 25.1475 234.53 25.3701C234.401 25.5869 234.337 25.8418 234.337 26.1348C234.337 26.4336 234.404 26.7061 234.539 26.9521C234.674 27.1982 234.876 27.3945 235.146 27.541C235.421 27.6816 235.758 27.752 236.156 27.752C236.654 27.752 237.094 27.6465 237.475 27.4355C237.855 27.2246 238.157 26.9668 238.38 26.6621C238.608 26.3574 238.731 26.0615 238.749 25.7744L239.443 26.5566C239.402 26.8027 239.291 27.0752 239.109 27.374C238.928 27.6729 238.685 27.96 238.38 28.2354C238.081 28.5049 237.724 28.7305 237.308 28.9121C236.897 29.0879 236.435 29.1758 235.919 29.1758C235.274 29.1758 234.709 29.0498 234.223 28.7979C233.742 28.5459 233.367 28.209 233.098 27.7871C232.834 27.3594 232.702 26.8818 232.702 26.3545C232.702 25.8447 232.802 25.3965 233.001 25.0098C233.2 24.6172 233.487 24.292 233.862 24.0342C234.237 23.7705 234.688 23.5713 235.216 23.4365C235.743 23.3018 236.332 23.2344 236.982 23.2344H238.872ZM244.541 15.5V29H242.906V15.5H244.541ZM251.098 29.1758C250.436 29.1758 249.835 29.0645 249.296 28.8418C248.763 28.6133 248.303 28.2939 247.916 27.8838C247.535 27.4736 247.242 26.9873 247.037 26.4248C246.832 25.8623 246.729 25.2471 246.729 24.5791V24.21C246.729 23.4365 246.844 22.748 247.072 22.1445C247.301 21.5352 247.611 21.0195 248.004 20.5977C248.396 20.1758 248.842 19.8564 249.34 19.6396C249.838 19.4229 250.354 19.3145 250.887 19.3145C251.566 19.3145 252.152 19.4316 252.645 19.666C253.143 19.9004 253.55 20.2285 253.866 20.6504C254.183 21.0664 254.417 21.5586 254.569 22.127C254.722 22.6895 254.798 23.3047 254.798 23.9727V24.7021H247.696V23.375H253.172V23.252C253.148 22.8301 253.061 22.4199 252.908 22.0215C252.762 21.623 252.527 21.2949 252.205 21.0371C251.883 20.7793 251.443 20.6504 250.887 20.6504C250.518 20.6504 250.178 20.7295 249.867 20.8877C249.557 21.04 249.29 21.2686 249.067 21.5732C248.845 21.8779 248.672 22.25 248.549 22.6895C248.426 23.1289 248.364 23.6357 248.364 24.21V24.5791C248.364 25.0303 248.426 25.4551 248.549 25.8535C248.678 26.2461 248.862 26.5918 249.103 26.8906C249.349 27.1895 249.645 27.4238 249.99 27.5938C250.342 27.7637 250.74 27.8486 251.186 27.8486C251.76 27.8486 252.246 27.7314 252.645 27.4971C253.043 27.2627 253.392 26.9492 253.69 26.5566L254.675 27.3389C254.47 27.6494 254.209 27.9453 253.893 28.2266C253.576 28.5078 253.187 28.7363 252.724 28.9121C252.267 29.0879 251.725 29.1758 251.098 29.1758Z" fill="#686868"/>
<circle cx="166" cy="58" r="10" fill="#F1F68E"/>
<g clip-path="url(#clip0_1_44297)">
<path d="M170.583 55.5L166.625 59.4583L164.542 57.375L161.417 60.5M170.583 55.5H168.083M170.583 55.5V58" stroke="#0F4E23" stroke-width="1.5" stroke-linecap="round" stroke-linejoin="round"/>
</g>
<path d="M192.215 46.2305V49.6875H190.387V46.2305H192.215ZM191.992 65.3672V68.5195H190.164V65.3672H191.992ZM193.281 61.5234C193.281 61.0781 193.199 60.6992 193.035 60.3867C192.879 60.0742 192.621 59.7969 192.262 59.5547C191.91 59.3125 191.434 59.0781 190.832 58.8516C189.816 58.4609 188.922 58.0469 188.148 57.6094C187.383 57.1641 186.785 56.6133 186.355 55.957C185.926 55.293 185.711 54.4531 185.711 53.4375C185.711 52.4688 185.941 51.6289 186.402 50.918C186.863 50.207 187.5 49.6602 188.312 49.2773C189.133 48.8867 190.086 48.6914 191.172 48.6914C192 48.6914 192.75 48.8164 193.422 49.0664C194.094 49.3086 194.672 49.668 195.156 50.1445C195.641 50.6133 196.012 51.1875 196.27 51.8672C196.527 52.5469 196.656 53.3242 196.656 54.1992H193.293C193.293 53.7305 193.242 53.3164 193.141 52.957C193.039 52.5977 192.891 52.2969 192.695 52.0547C192.508 51.8125 192.281 51.6328 192.016 51.5156C191.75 51.3906 191.457 51.3281 191.137 51.3281C190.66 51.3281 190.27 51.4219 189.965 51.6094C189.66 51.7969 189.438 52.0508 189.297 52.3711C189.164 52.6836 189.098 53.043 189.098 53.4492C189.098 53.8477 189.168 54.1953 189.309 54.4922C189.457 54.7891 189.711 55.0625 190.07 55.3125C190.43 55.5547 190.922 55.8047 191.547 56.0625C192.562 56.4531 193.453 56.875 194.219 57.3281C194.984 57.7812 195.582 58.3359 196.012 58.9922C196.441 59.6484 196.656 60.4844 196.656 61.5C196.656 62.5078 196.422 63.3672 195.953 64.0781C195.484 64.7812 194.828 65.3203 193.984 65.6953C193.141 66.0625 192.164 66.2461 191.055 66.2461C190.336 66.2461 189.621 66.1523 188.91 65.9648C188.199 65.7695 187.555 65.457 186.977 65.0273C186.398 64.5977 185.938 64.0273 185.594 63.3164C185.25 62.5977 185.078 61.7148 185.078 60.668H188.453C188.453 61.2383 188.527 61.7148 188.676 62.0977C188.824 62.4727 189.02 62.7734 189.262 63C189.512 63.2188 189.793 63.375 190.105 63.4688C190.418 63.5625 190.734 63.6094 191.055 63.6094C191.555 63.6094 191.965 63.5195 192.285 63.3398C192.613 63.1602 192.859 62.9141 193.023 62.6016C193.195 62.2812 193.281 61.9219 193.281 61.5234ZM210.625 63.3633V66H198.953V63.75L204.473 57.832C205.027 57.2148 205.465 56.6719 205.785 56.2031C206.105 55.7266 206.336 55.3008 206.477 54.9258C206.625 54.543 206.699 54.1797 206.699 53.8359C206.699 53.3203 206.613 52.8789 206.441 52.5117C206.27 52.1367 206.016 51.8477 205.68 51.6445C205.352 51.4414 204.945 51.3398 204.461 51.3398C203.945 51.3398 203.5 51.4648 203.125 51.7148C202.758 51.9648 202.477 52.3125 202.281 52.7578C202.094 53.2031 202 53.707 202 54.2695H198.613C198.613 53.2539 198.855 52.3242 199.34 51.4805C199.824 50.6289 200.508 49.9531 201.391 49.4531C202.273 48.9453 203.32 48.6914 204.531 48.6914C205.727 48.6914 206.734 48.8867 207.555 49.2773C208.383 49.6602 209.008 50.2148 209.43 50.9414C209.859 51.6602 210.074 52.5195 210.074 53.5195C210.074 54.082 209.984 54.6328 209.805 55.1719C209.625 55.7031 209.367 56.2344 209.031 56.7656C208.703 57.2891 208.305 57.8203 207.836 58.3594C207.367 58.8984 206.848 59.457 206.277 60.0352L203.312 63.3633H210.625ZM216.074 63.1523L216.062 65.4141C216.062 66.2812 215.844 67.1562 215.406 68.0391C214.977 68.9219 214.43 69.6445 213.766 70.207L212.008 69.3047C212.203 68.9453 212.395 68.5859 212.582 68.2266C212.77 67.8672 212.926 67.4727 213.051 67.043C213.176 66.6133 213.238 66.125 213.238 65.5781V63.1523H216.074ZM230.594 59.625V62.2734H218.301L218.137 60.2227L225.25 48.9375H227.934L225.027 53.8008L221.488 59.625H230.594ZM228.66 48.9375V66H225.285V48.9375H228.66ZM235.598 58.2305L232.902 57.5859L233.875 48.9375H243.461V51.668H236.652L236.23 55.4531C236.457 55.3203 236.801 55.1797 237.262 55.0312C237.723 54.875 238.238 54.7969 238.809 54.7969C239.637 54.7969 240.371 54.9258 241.012 55.1836C241.652 55.4414 242.195 55.8164 242.641 56.3086C243.094 56.8008 243.438 57.4023 243.672 58.1133C243.906 58.8242 244.023 59.6289 244.023 60.5273C244.023 61.2852 243.906 62.0078 243.672 62.6953C243.438 63.375 243.082 63.9844 242.605 64.5234C242.129 65.0547 241.531 65.4727 240.812 65.7773C240.094 66.082 239.242 66.2344 238.258 66.2344C237.523 66.2344 236.812 66.125 236.125 65.9062C235.445 65.6875 234.832 65.3633 234.285 64.9336C233.746 64.5039 233.312 63.9844 232.984 63.375C232.664 62.7578 232.496 62.0547 232.48 61.2656H235.832C235.879 61.75 236.004 62.168 236.207 62.5195C236.418 62.8633 236.695 63.1289 237.039 63.3164C237.383 63.5039 237.785 63.5977 238.246 63.5977C238.676 63.5977 239.043 63.5156 239.348 63.3516C239.652 63.1875 239.898 62.9609 240.086 62.6719C240.273 62.375 240.41 62.0312 240.496 61.6406C240.59 61.2422 240.637 60.8125 240.637 60.3516C240.637 59.8906 240.582 59.4727 240.473 59.0977C240.363 58.7227 240.195 58.3984 239.969 58.125C239.742 57.8516 239.453 57.6406 239.102 57.4922C238.758 57.3438 238.355 57.2695 237.895 57.2695C237.27 57.2695 236.785 57.3672 236.441 57.5625C236.105 57.7578 235.824 57.9805 235.598 58.2305ZM257.688 55.9688V58.9219C257.688 60.2031 257.551 61.3086 257.277 62.2383C257.004 63.1602 256.609 63.918 256.094 64.5117C255.586 65.0977 254.98 65.5312 254.277 65.8125C253.574 66.0938 252.793 66.2344 251.934 66.2344C251.246 66.2344 250.605 66.1484 250.012 65.9766C249.418 65.7969 248.883 65.5195 248.406 65.1445C247.938 64.7695 247.531 64.2969 247.188 63.7266C246.852 63.1484 246.594 62.4609 246.414 61.6641C246.234 60.8672 246.145 59.9531 246.145 58.9219V55.9688C246.145 54.6875 246.281 53.5898 246.555 52.6758C246.836 51.7539 247.23 51 247.738 50.4141C248.254 49.8281 248.863 49.3984 249.566 49.125C250.27 48.8438 251.051 48.7031 251.91 48.7031C252.598 48.7031 253.234 48.793 253.82 48.9727C254.414 49.1445 254.949 49.4141 255.426 49.7812C255.902 50.1484 256.309 50.6211 256.645 51.1992C256.98 51.7695 257.238 52.4531 257.418 53.25C257.598 54.0391 257.688 54.9453 257.688 55.9688ZM254.301 59.3672V55.5117C254.301 54.8945 254.266 54.3555 254.195 53.8945C254.133 53.4336 254.035 53.043 253.902 52.7227C253.77 52.3945 253.605 52.1289 253.41 51.9258C253.215 51.7227 252.992 51.5742 252.742 51.4805C252.492 51.3867 252.215 51.3398 251.91 51.3398C251.527 51.3398 251.188 51.4141 250.891 51.5625C250.602 51.7109 250.355 51.9492 250.152 52.2773C249.949 52.5977 249.793 53.0273 249.684 53.5664C249.582 54.0977 249.531 54.7461 249.531 55.5117V59.3672C249.531 59.9844 249.562 60.5273 249.625 60.9961C249.695 61.4648 249.797 61.8672 249.93 62.2031C250.07 62.5312 250.234 62.8008 250.422 63.0117C250.617 63.2148 250.84 63.3633 251.09 63.457C251.348 63.5508 251.629 63.5977 251.934 63.5977C252.309 63.5977 252.641 63.5234 252.93 63.375C253.227 63.2188 253.477 62.9766 253.68 62.6484C253.891 62.3125 254.047 61.875 254.148 61.3359C254.25 60.7969 254.301 60.1406 254.301 59.3672Z" fill="#141414"/>
<defs>
<clipPath id="clip0_1_44297">
<rect width="10" height="10" fill="white" transform="translate(161 53)"/>
</clipPath>
</defs>
</svg>
