<svg width="308" height="40" viewBox="0 0 308 40" fill="none" xmlns="http://www.w3.org/2000/svg">
<circle cx="16" cy="20" r="16" fill="#0F4E23"/>
<path fill-rule="evenodd" clip-rule="evenodd" d="M13.9911 14.7162C13.9008 14.2947 13.2992 14.2946 13.2089 14.7162L12.2533 19.1758C12.0161 20.2824 11.0382 21.0729 9.90653 21.0729H8.8C8.35817 21.0729 8 20.7147 8 20.2729C8 19.8311 8.35817 19.4729 8.8 19.4729H9.90653C10.2838 19.4729 10.6097 19.2094 10.6888 18.8405L11.6444 14.381C12.0961 12.2731 15.1039 12.2731 15.5556 14.381L18.0089 25.8296C18.0992 26.2512 18.7008 26.2512 18.7911 25.8296L19.7467 21.37C19.9839 20.2635 20.9618 19.4729 22.0935 19.4729H23.2C23.6418 19.4729 24 19.8311 24 20.2729C24 20.7147 23.6418 21.0729 23.2 21.0729H22.0935C21.7162 21.0729 21.3903 21.3364 21.3112 21.7053L20.3556 26.1648C19.9039 28.2728 16.8961 28.2728 16.4444 26.1648L13.9911 14.7162Z" fill="white"/>
<path d="M54.132 29V13.748H48.24V11.72H62.16V13.748H56.268V29H54.132ZM67.6688 29.36C66.3808 29.36 65.2688 29.068 64.3328 28.484C63.4048 27.9 62.6888 27.092 62.1848 26.06C61.6808 25.028 61.4288 23.844 61.4288 22.508C61.4288 21.148 61.6848 19.956 62.1968 18.932C62.7088 17.908 63.4328 17.112 64.3688 16.544C65.3048 15.968 66.4048 15.68 67.6688 15.68C68.9648 15.68 70.0808 15.972 71.0168 16.556C71.9528 17.132 72.6688 17.936 73.1648 18.968C73.6688 19.992 73.9208 21.172 73.9208 22.508C73.9208 23.86 73.6688 25.052 73.1648 26.084C72.6608 27.108 71.9408 27.912 71.0048 28.496C70.0688 29.072 68.9568 29.36 67.6688 29.36ZM67.6688 27.332C69.0128 27.332 70.0128 26.884 70.6688 25.988C71.3248 25.092 71.6528 23.932 71.6528 22.508C71.6528 21.044 71.3208 19.88 70.6568 19.016C69.9928 18.144 68.9968 17.708 67.6688 17.708C66.7648 17.708 66.0208 17.912 65.4368 18.32C64.8528 18.728 64.4168 19.292 64.1288 20.012C63.8408 20.732 63.6968 21.564 63.6968 22.508C63.6968 23.964 64.0328 25.132 64.7048 26.012C65.3768 26.892 66.3648 27.332 67.6688 27.332ZM83.7988 29C83.0308 29.152 82.2708 29.212 81.5188 29.18C80.7748 29.156 80.1108 29.008 79.5268 28.736C78.9428 28.456 78.4988 28.024 78.1948 27.44C77.9388 26.928 77.7988 26.412 77.7748 25.892C77.7588 25.364 77.7508 24.768 77.7508 24.104V12.44H79.8868V24.008C79.8868 24.536 79.8908 24.988 79.8988 25.364C79.9148 25.74 79.9988 26.064 80.1508 26.336C80.4388 26.848 80.8948 27.148 81.5188 27.236C82.1508 27.324 82.9108 27.3 83.7988 27.164V29ZM75.1228 17.804V16.04H83.7988V17.804H75.1228ZM90.114 29.36C89.146 29.36 88.334 29.184 87.678 28.832C87.03 28.472 86.538 28 86.202 27.416C85.874 26.832 85.71 26.192 85.71 25.496C85.71 24.816 85.838 24.228 86.094 23.732C86.358 23.228 86.726 22.812 87.198 22.484C87.67 22.148 88.234 21.884 88.89 21.692C89.506 21.524 90.194 21.38 90.954 21.26C91.722 21.132 92.498 21.016 93.282 20.912C94.066 20.808 94.798 20.708 95.478 20.612L94.71 21.056C94.734 19.904 94.502 19.052 94.014 18.5C93.534 17.948 92.702 17.672 91.518 17.672C90.734 17.672 90.046 17.852 89.454 18.212C88.87 18.564 88.458 19.14 88.218 19.94L86.19 19.328C86.502 18.192 87.106 17.3 88.002 16.652C88.898 16.004 90.078 15.68 91.542 15.68C92.718 15.68 93.726 15.892 94.566 16.316C95.414 16.732 96.022 17.364 96.39 18.212C96.574 18.612 96.69 19.048 96.738 19.52C96.786 19.984 96.81 20.472 96.81 20.984V29H94.914V25.892L95.358 26.18C94.87 27.228 94.186 28.02 93.306 28.556C92.434 29.092 91.37 29.36 90.114 29.36ZM90.438 27.572C91.206 27.572 91.87 27.436 92.43 27.164C92.998 26.884 93.454 26.52 93.798 26.072C94.142 25.616 94.366 25.12 94.47 24.584C94.59 24.184 94.654 23.74 94.662 23.252C94.678 22.756 94.686 22.376 94.686 22.112L95.43 22.436C94.734 22.532 94.05 22.624 93.378 22.712C92.706 22.8 92.07 22.896 91.47 23C90.87 23.096 90.33 23.212 89.85 23.348C89.498 23.46 89.166 23.604 88.854 23.78C88.55 23.956 88.302 24.184 88.11 24.464C87.926 24.736 87.834 25.076 87.834 25.484C87.834 25.836 87.922 26.172 88.098 26.492C88.282 26.812 88.562 27.072 88.938 27.272C89.322 27.472 89.822 27.572 90.438 27.572ZM100.17 29V11.36H102.306V29H100.17ZM115.607 29.348C114.063 29.348 112.795 29.012 111.803 28.34C110.819 27.66 110.215 26.712 109.991 25.496L112.175 25.148C112.351 25.852 112.755 26.412 113.387 26.828C114.019 27.236 114.803 27.44 115.739 27.44C116.627 27.44 117.323 27.256 117.827 26.888C118.331 26.52 118.583 26.02 118.583 25.388C118.583 25.02 118.499 24.724 118.331 24.5C118.163 24.268 117.815 24.052 117.287 23.852C116.767 23.652 115.979 23.412 114.923 23.132C113.779 22.828 112.879 22.512 112.223 22.184C111.567 21.856 111.099 21.476 110.819 21.044C110.539 20.612 110.399 20.088 110.399 19.472C110.399 18.712 110.607 18.048 111.023 17.48C111.439 16.904 112.019 16.46 112.763 16.148C113.515 15.836 114.387 15.68 115.379 15.68C116.363 15.68 117.243 15.836 118.019 16.148C118.795 16.46 119.419 16.904 119.891 17.48C120.371 18.048 120.655 18.712 120.743 19.472L118.559 19.868C118.455 19.172 118.119 18.624 117.551 18.224C116.991 17.824 116.267 17.612 115.379 17.588C114.539 17.556 113.855 17.704 113.327 18.032C112.807 18.36 112.547 18.804 112.547 19.364C112.547 19.676 112.643 19.944 112.835 20.168C113.035 20.392 113.399 20.604 113.927 20.804C114.463 21.004 115.239 21.232 116.255 21.488C117.399 21.776 118.299 22.092 118.955 22.436C119.619 22.772 120.091 23.172 120.371 23.636C120.651 24.092 120.791 24.656 120.791 25.328C120.791 26.576 120.331 27.56 119.411 28.28C118.491 28.992 117.223 29.348 115.607 29.348ZM127.122 29.36C126.154 29.36 125.342 29.184 124.686 28.832C124.038 28.472 123.546 28 123.21 27.416C122.882 26.832 122.718 26.192 122.718 25.496C122.718 24.816 122.846 24.228 123.102 23.732C123.366 23.228 123.734 22.812 124.206 22.484C124.678 22.148 125.242 21.884 125.898 21.692C126.514 21.524 127.202 21.38 127.962 21.26C128.73 21.132 129.506 21.016 130.29 20.912C131.074 20.808 131.806 20.708 132.486 20.612L131.718 21.056C131.742 19.904 131.51 19.052 131.022 18.5C130.542 17.948 129.71 17.672 128.526 17.672C127.742 17.672 127.054 17.852 126.462 18.212C125.878 18.564 125.466 19.14 125.226 19.94L123.198 19.328C123.51 18.192 124.114 17.3 125.01 16.652C125.906 16.004 127.086 15.68 128.55 15.68C129.726 15.68 130.734 15.892 131.574 16.316C132.422 16.732 133.03 17.364 133.398 18.212C133.582 18.612 133.698 19.048 133.746 19.52C133.794 19.984 133.818 20.472 133.818 20.984V29H131.922V25.892L132.366 26.18C131.878 27.228 131.194 28.02 130.314 28.556C129.442 29.092 128.378 29.36 127.122 29.36ZM127.446 27.572C128.214 27.572 128.878 27.436 129.438 27.164C130.006 26.884 130.462 26.52 130.806 26.072C131.15 25.616 131.374 25.12 131.478 24.584C131.598 24.184 131.662 23.74 131.67 23.252C131.686 22.756 131.694 22.376 131.694 22.112L132.438 22.436C131.742 22.532 131.058 22.624 130.386 22.712C129.714 22.8 129.078 22.896 128.478 23C127.878 23.096 127.338 23.212 126.858 23.348C126.506 23.46 126.174 23.604 125.862 23.78C125.558 23.956 125.31 24.184 125.118 24.464C124.934 24.736 124.842 25.076 124.842 25.484C124.842 25.836 124.93 26.172 125.106 26.492C125.29 26.812 125.57 27.072 125.946 27.272C126.33 27.472 126.83 27.572 127.446 27.572ZM137.178 29V11.36H139.314V29H137.178ZM148.53 29.36C147.258 29.36 146.146 29.08 145.194 28.52C144.25 27.952 143.514 27.164 142.986 26.156C142.458 25.14 142.194 23.956 142.194 22.604C142.194 21.188 142.454 19.964 142.974 18.932C143.494 17.892 144.218 17.092 145.146 16.532C146.082 15.964 147.178 15.68 148.434 15.68C149.738 15.68 150.846 15.98 151.758 16.58C152.678 17.18 153.366 18.036 153.822 19.148C154.286 20.26 154.486 21.584 154.422 23.12H152.262V22.352C152.238 20.76 151.914 19.572 151.29 18.788C150.666 17.996 149.738 17.6 148.506 17.6C147.186 17.6 146.182 18.024 145.494 18.872C144.806 19.72 144.462 20.936 144.462 22.52C144.462 24.048 144.806 25.232 145.494 26.072C146.182 26.912 147.162 27.332 148.434 27.332C149.29 27.332 150.034 27.136 150.666 26.744C151.298 26.352 151.794 25.788 152.154 25.052L154.206 25.76C153.702 26.904 152.942 27.792 151.926 28.424C150.918 29.048 149.786 29.36 148.53 29.36ZM143.742 23.12V21.404H153.318V23.12H143.742ZM161.99 29.348C160.446 29.348 159.178 29.012 158.186 28.34C157.202 27.66 156.598 26.712 156.374 25.496L158.558 25.148C158.734 25.852 159.138 26.412 159.77 26.828C160.402 27.236 161.186 27.44 162.122 27.44C163.01 27.44 163.706 27.256 164.21 26.888C164.714 26.52 164.966 26.02 164.966 25.388C164.966 25.02 164.882 24.724 164.714 24.5C164.546 24.268 164.198 24.052 163.67 23.852C163.15 23.652 162.362 23.412 161.306 23.132C160.162 22.828 159.262 22.512 158.606 22.184C157.95 21.856 157.482 21.476 157.202 21.044C156.922 20.612 156.782 20.088 156.782 19.472C156.782 18.712 156.99 18.048 157.406 17.48C157.822 16.904 158.402 16.46 159.146 16.148C159.898 15.836 160.77 15.68 161.762 15.68C162.746 15.68 163.626 15.836 164.402 16.148C165.178 16.46 165.802 16.904 166.274 17.48C166.754 18.048 167.038 18.712 167.126 19.472L164.942 19.868C164.838 19.172 164.502 18.624 163.934 18.224C163.374 17.824 162.65 17.612 161.762 17.588C160.922 17.556 160.238 17.704 159.71 18.032C159.19 18.36 158.93 18.804 158.93 19.364C158.93 19.676 159.026 19.944 159.218 20.168C159.418 20.392 159.782 20.604 160.31 20.804C160.846 21.004 161.622 21.232 162.638 21.488C163.782 21.776 164.682 22.092 165.338 22.436C166.002 22.772 166.474 23.172 166.754 23.636C167.034 24.092 167.174 24.656 167.174 25.328C167.174 26.576 166.714 27.56 165.794 28.28C164.874 28.992 163.606 29.348 161.99 29.348ZM175.585 27.2V24.848H177.937V27.2H175.585ZM175.597 20.192V17.84H177.949V20.192H175.597Z" fill="#686868"/>
<path d="M199.953 4.64062V9.25H197.516V4.64062H199.953ZM199.656 30.1562V34.3594H197.219V30.1562H199.656ZM201.375 25.0312C201.375 24.4375 201.266 23.9323 201.047 23.5156C200.839 23.099 200.495 22.7292 200.016 22.4062C199.547 22.0833 198.911 21.7708 198.109 21.4688C196.755 20.9479 195.562 20.3958 194.531 19.8125C193.51 19.2188 192.714 18.4844 192.141 17.6094C191.568 16.724 191.281 15.6042 191.281 14.25C191.281 12.9583 191.589 11.8385 192.203 10.8906C192.818 9.94271 193.667 9.21354 194.75 8.70312C195.844 8.18229 197.115 7.92188 198.562 7.92188C199.667 7.92188 200.667 8.08854 201.562 8.42188C202.458 8.74479 203.229 9.22396 203.875 9.85938C204.521 10.4844 205.016 11.25 205.359 12.1562C205.703 13.0625 205.875 14.099 205.875 15.2656H201.391C201.391 14.6406 201.323 14.0885 201.188 13.6094C201.052 13.1302 200.854 12.7292 200.594 12.4062C200.344 12.0833 200.042 11.8438 199.688 11.6875C199.333 11.5208 198.943 11.4375 198.516 11.4375C197.88 11.4375 197.359 11.5625 196.953 11.8125C196.547 12.0625 196.25 12.401 196.062 12.8281C195.885 13.2448 195.797 13.724 195.797 14.2656C195.797 14.7969 195.891 15.2604 196.078 15.6562C196.276 16.0521 196.615 16.4167 197.094 16.75C197.573 17.0729 198.229 17.4062 199.062 17.75C200.417 18.2708 201.604 18.8333 202.625 19.4375C203.646 20.0417 204.443 20.7812 205.016 21.6562C205.589 22.5312 205.875 23.6458 205.875 25C205.875 26.3438 205.562 27.4896 204.938 28.4375C204.312 29.375 203.438 30.0938 202.312 30.5938C201.188 31.0833 199.885 31.3281 198.406 31.3281C197.448 31.3281 196.495 31.2031 195.547 30.9531C194.599 30.6927 193.74 30.276 192.969 29.7031C192.198 29.1302 191.583 28.3698 191.125 27.4219C190.667 26.4635 190.438 25.2865 190.438 23.8906H194.938C194.938 24.651 195.036 25.2865 195.234 25.7969C195.432 26.2969 195.693 26.6979 196.016 27C196.349 27.2917 196.724 27.5 197.141 27.625C197.557 27.75 197.979 27.8125 198.406 27.8125C199.073 27.8125 199.62 27.6927 200.047 27.4531C200.484 27.2135 200.812 26.8854 201.031 26.4688C201.26 26.0417 201.375 25.5625 201.375 25.0312ZM219.906 8.20312V31H215.406V13.3906L210 15.1094V11.5625L219.422 8.20312H219.906ZM242.875 27.4844V31H227.312V28L234.672 20.1094C235.411 19.2865 235.995 18.5625 236.422 17.9375C236.849 17.3021 237.156 16.7344 237.344 16.2344C237.542 15.724 237.641 15.2396 237.641 14.7812C237.641 14.0938 237.526 13.5052 237.297 13.0156C237.068 12.5156 236.729 12.1302 236.281 11.8594C235.844 11.5885 235.302 11.4531 234.656 11.4531C233.969 11.4531 233.375 11.6198 232.875 11.9531C232.385 12.2865 232.01 12.75 231.75 13.3438C231.5 13.9375 231.375 14.6094 231.375 15.3594H226.859C226.859 14.0052 227.182 12.7656 227.828 11.6406C228.474 10.5052 229.385 9.60417 230.562 8.9375C231.74 8.26042 233.135 7.92188 234.75 7.92188C236.344 7.92188 237.688 8.18229 238.781 8.70312C239.885 9.21354 240.719 9.95312 241.281 10.9219C241.854 11.8802 242.141 13.026 242.141 14.3594C242.141 15.1094 242.021 15.8438 241.781 16.5625C241.542 17.2708 241.198 17.9792 240.75 18.6875C240.312 19.3854 239.781 20.0938 239.156 20.8125C238.531 21.5312 237.839 22.276 237.078 23.0469L233.125 27.4844H242.875ZM250.141 27.2031L250.125 30.2188C250.125 31.375 249.833 32.5417 249.25 33.7188C248.677 34.8958 247.948 35.8594 247.062 36.6094L244.719 35.4062C244.979 34.9271 245.234 34.4479 245.484 33.9688C245.734 33.4896 245.943 32.9635 246.109 32.3906C246.276 31.8177 246.359 31.1667 246.359 30.4375V27.2031H250.141ZM257.797 20.6406L254.203 19.7812L255.5 8.25H268.281V11.8906H259.203L258.641 16.9375C258.943 16.7604 259.401 16.5729 260.016 16.375C260.63 16.1667 261.318 16.0625 262.078 16.0625C263.182 16.0625 264.161 16.2344 265.016 16.5781C265.87 16.9219 266.594 17.4219 267.188 18.0781C267.792 18.7344 268.25 19.5365 268.562 20.4844C268.875 21.4323 269.031 22.5052 269.031 23.7031C269.031 24.7135 268.875 25.6771 268.562 26.5938C268.25 27.5 267.776 28.3125 267.141 29.0312C266.505 29.7396 265.708 30.2969 264.75 30.7031C263.792 31.1094 262.656 31.3125 261.344 31.3125C260.365 31.3125 259.417 31.1667 258.5 30.875C257.594 30.5833 256.776 30.151 256.047 29.5781C255.328 29.0052 254.75 28.3125 254.312 27.5C253.885 26.6771 253.661 25.7396 253.641 24.6875H258.109C258.172 25.3333 258.339 25.8906 258.609 26.3594C258.891 26.8177 259.26 27.1719 259.719 27.4219C260.177 27.6719 260.714 27.7969 261.328 27.7969C261.901 27.7969 262.391 27.6875 262.797 27.4688C263.203 27.25 263.531 26.9479 263.781 26.5625C264.031 26.1667 264.214 25.7083 264.328 25.1875C264.453 24.6562 264.516 24.0833 264.516 23.4688C264.516 22.8542 264.443 22.2969 264.297 21.7969C264.151 21.2969 263.927 20.8646 263.625 20.5C263.323 20.1354 262.938 19.8542 262.469 19.6562C262.01 19.4583 261.474 19.3594 260.859 19.3594C260.026 19.3594 259.38 19.4896 258.922 19.75C258.474 20.0104 258.099 20.3073 257.797 20.6406ZM287.25 17.625V21.5625C287.25 23.2708 287.068 24.7448 286.703 25.9844C286.339 27.2135 285.812 28.224 285.125 29.0156C284.448 29.7969 283.641 30.375 282.703 30.75C281.766 31.125 280.724 31.3125 279.578 31.3125C278.661 31.3125 277.807 31.1979 277.016 30.9688C276.224 30.7292 275.51 30.3594 274.875 29.8594C274.25 29.3594 273.708 28.7292 273.25 27.9688C272.802 27.1979 272.458 26.2812 272.219 25.2188C271.979 24.1562 271.859 22.9375 271.859 21.5625V17.625C271.859 15.9167 272.042 14.4531 272.406 13.2344C272.781 12.0052 273.307 11 273.984 10.2188C274.672 9.4375 275.484 8.86458 276.422 8.5C277.359 8.125 278.401 7.9375 279.547 7.9375C280.464 7.9375 281.312 8.05729 282.094 8.29688C282.885 8.52604 283.599 8.88542 284.234 9.375C284.87 9.86458 285.411 10.4948 285.859 11.2656C286.307 12.026 286.651 12.9375 286.891 14C287.13 15.0521 287.25 16.2604 287.25 17.625ZM282.734 22.1562V17.0156C282.734 16.1927 282.688 15.474 282.594 14.8594C282.51 14.2448 282.38 13.724 282.203 13.2969C282.026 12.8594 281.807 12.5052 281.547 12.2344C281.286 11.9635 280.99 11.7656 280.656 11.6406C280.323 11.5156 279.953 11.4531 279.547 11.4531C279.036 11.4531 278.583 11.5521 278.188 11.75C277.802 11.9479 277.474 12.2656 277.203 12.7031C276.932 13.1302 276.724 13.7031 276.578 14.4219C276.443 15.1302 276.375 15.9948 276.375 17.0156V22.1562C276.375 22.9792 276.417 23.7031 276.5 24.3281C276.594 24.9531 276.729 25.4896 276.906 25.9375C277.094 26.375 277.312 26.7344 277.562 27.0156C277.823 27.2865 278.12 27.4844 278.453 27.6094C278.797 27.7344 279.172 27.7969 279.578 27.7969C280.078 27.7969 280.521 27.6979 280.906 27.5C281.302 27.2917 281.635 26.9688 281.906 26.5312C282.188 26.0833 282.396 25.5 282.531 24.7812C282.667 24.0625 282.734 23.1875 282.734 22.1562ZM305.625 17.625V21.5625C305.625 23.2708 305.443 24.7448 305.078 25.9844C304.714 27.2135 304.188 28.224 303.5 29.0156C302.823 29.7969 302.016 30.375 301.078 30.75C300.141 31.125 299.099 31.3125 297.953 31.3125C297.036 31.3125 296.182 31.1979 295.391 30.9688C294.599 30.7292 293.885 30.3594 293.25 29.8594C292.625 29.3594 292.083 28.7292 291.625 27.9688C291.177 27.1979 290.833 26.2812 290.594 25.2188C290.354 24.1562 290.234 22.9375 290.234 21.5625V17.625C290.234 15.9167 290.417 14.4531 290.781 13.2344C291.156 12.0052 291.682 11 292.359 10.2188C293.047 9.4375 293.859 8.86458 294.797 8.5C295.734 8.125 296.776 7.9375 297.922 7.9375C298.839 7.9375 299.688 8.05729 300.469 8.29688C301.26 8.52604 301.974 8.88542 302.609 9.375C303.245 9.86458 303.786 10.4948 304.234 11.2656C304.682 12.026 305.026 12.9375 305.266 14C305.505 15.0521 305.625 16.2604 305.625 17.625ZM301.109 22.1562V17.0156C301.109 16.1927 301.062 15.474 300.969 14.8594C300.885 14.2448 300.755 13.724 300.578 13.2969C300.401 12.8594 300.182 12.5052 299.922 12.2344C299.661 11.9635 299.365 11.7656 299.031 11.6406C298.698 11.5156 298.328 11.4531 297.922 11.4531C297.411 11.4531 296.958 11.5521 296.562 11.75C296.177 11.9479 295.849 12.2656 295.578 12.7031C295.307 13.1302 295.099 13.7031 294.953 14.4219C294.818 15.1302 294.75 15.9948 294.75 17.0156V22.1562C294.75 22.9792 294.792 23.7031 294.875 24.3281C294.969 24.9531 295.104 25.4896 295.281 25.9375C295.469 26.375 295.688 26.7344 295.938 27.0156C296.198 27.2865 296.495 27.4844 296.828 27.6094C297.172 27.7344 297.547 27.7969 297.953 27.7969C298.453 27.7969 298.896 27.6979 299.281 27.5C299.677 27.2917 300.01 26.9688 300.281 26.5312C300.562 26.0833 300.771 25.5 300.906 24.7812C301.042 24.0625 301.109 23.1875 301.109 22.1562Z" fill="#686868"/>
</svg>
